<?xml version="1.0" standalone="no"?>
<!DOCTYPE svg PUBLIC "-//W3C//DTD SVG 20010904//EN"
 "http://www.w3.org/TR/2001/REC-SVG-20010904/DTD/svg10.dtd">
<svg version="1.0" xmlns="http://www.w3.org/2000/svg"
 width="1105.000000pt" height="1105.000000pt" viewBox="0 0 1105.000000 1105.000000"
 preserveAspectRatio="xMidYMid meet">
<metadata>
Created by potrace 1.11, written by Peter Selinger 2001-2013
</metadata>
<g transform="translate(0.000000,1105.000000) scale(0.100000,-0.100000)"
fill="#000000" stroke="none">
<path d="M4920 10064 c-397 -15 -940 -76 -1181 -133 -861 -205 -1535 -530
-1944 -938 -327 -325 -481 -658 -502 -1084 -15 -320 72 -625 249 -860 59 -79
262 -289 279 -289 4 0 -3 33 -17 73 -57 168 -70 388 -33 570 94 463 446 863
1089 1237 152 88 254 140 447 226 718 320 1459 507 2278 575 192 16 775 16
970 0 920 -75 1872 -332 2625 -707 216 -108 468 -255 615 -360 108 -77 108
-73 0 31 -300 289 -616 532 -963 740 -220 131 -620 316 -970 449 -618 234
-1428 420 -1987 456 -174 11 -785 20 -955 14z"/>
<path d="M5725 9254 c-22 -2 -103 -8 -180 -14 -390 -31 -893 -127 -1290 -246
-172 -52 -446 -146 -441 -152 2 -2 48 2 102 7 667 73 1632 -13 2409 -214 994
-257 1817 -666 2525 -1253 145 -121 404 -374 525 -515 422 -489 676 -1002 769
-1552 49 -290 43 -643 -15 -915 -69 -328 -183 -594 -370 -867 -27 -39 -49 -74
-49 -77 0 -9 137 84 250 169 232 176 459 429 616 686 78 129 205 392 249 519
108 313 156 602 157 943 1 897 -395 1671 -1172 2292 -806 644 -2036 1088
-3284 1185 -115 9 -699 11 -801 4z"/>
<path d="M1370 8833 c-410 -395 -662 -849 -746 -1348 -22 -130 -29 -378 -15
-525 29 -301 119 -585 251 -790 331 -514 978 -843 2000 -1019 96 -17 310 -49
475 -71 300 -40 589 -89 804 -136 63 -13 116 -22 118 -20 2 2 -9 30 -25 62
-16 33 -48 118 -71 189 -114 353 -273 561 -526 689 -144 72 -252 99 -595 147
-323 45 -457 82 -690 188 -349 160 -607 335 -821 558 -276 289 -409 582 -426
940 -17 367 101 753 355 1166 30 49 52 90 49 93 -2 3 -64 -53 -137 -123z"/>
<path d="M533 8018 c-100 -155 -162 -263 -220 -386 -122 -260 -210 -532 -245
-758 -29 -187 -32 -614 -4 -799 80 -542 258 -947 586 -1330 121 -141 297 -294
481 -417 358 -240 792 -389 1319 -453 69 -8 231 -23 360 -34 233 -20 347 -27
985 -56 741 -35 1086 -96 1390 -245 141 -69 302 -192 390 -297 120 -144 207
-325 244 -507 11 -54 22 -100 24 -102 11 -11 110 210 133 296 34 127 44 345
20 467 -66 343 -312 670 -686 912 -253 164 -558 279 -1065 401 -344 83 -552
119 -1118 195 -804 107 -1437 306 -1878 591 -194 125 -412 336 -531 514 -224
335 -332 754 -315 1230 11 307 73 581 191 843 14 31 24 57 22 57 -2 0 -40 -55
-83 -122z"/>
<path d="M9176 6777 c183 -346 294 -793 294 -1187 -1 -550 -154 -1007 -489
-1455 -180 -241 -507 -521 -816 -700 -27 -16 -165 -86 -306 -156 -363 -181
-553 -311 -737 -503 -185 -194 -293 -391 -343 -628 -31 -147 -31 -369 0 -527
28 -144 99 -359 156 -476 25 -49 42 -79 38 -65 -16 59 -5 226 22 345 35 156
116 404 169 519 87 188 215 367 361 504 219 207 379 299 765 436 534 191 681
255 864 378 135 92 294 238 400 370 176 218 321 525 377 798 89 432 53 881
-108 1330 -128 358 -363 733 -674 1074 -5 5 7 -20 27 -57z"/>
<path d="M9114 6410 c26 -137 31 -197 30 -375 -1 -179 -4 -213 -28 -323 -78
-355 -219 -606 -487 -869 -212 -207 -402 -333 -779 -516 -510 -247 -671 -330
-778 -401 -463 -308 -760 -746 -853 -1261 -63 -350 36 -702 334 -1178 44 -70
81 -126 83 -124 2 2 -3 24 -11 48 -65 181 -86 525 -46 744 58 317 196 564 457
815 202 195 381 314 734 488 118 58 242 121 275 140 373 213 673 487 879 804
126 193 237 453 291 683 97 408 65 903 -84 1295 -12 30 -19 44 -17 30z"/>
</g>
</svg>
