<svg xmlns="http://www.w3.org/2000/svg" viewBox="0 0 500 500"><defs><style>  .cls-1,.cls-2{fill:#a099ad;}.cls-2{fill-rule:evenodd;}</style></defs><title>  Facebook</title><g data-name="Layer 2"><g data-name="Layer 1"><path class="cls-1" d="M250 500C112.2 500 0 387.9 0 250S112.2 0 250 0 500 112.2 500 250 387.9 500 250 500Zm0-473.1C127 26.9 26.9 127 26.9 250S127 473.1 250 473.1 473.1 373 473.1 250 373 26.9 250 26.9Z"/><path class="cls-2" d="M210.8 251.2V396.1a3.8 3.8 0 0 0 3.8 3.8h53.8a3.8 3.8 0 0 0 3.8-3.8V248.8h39a3.8 3.8 0 0 0 3.8-3.5L318.7 201a3.8 3.8 0 0 0-3.8-4.1H272.2V165.4a13.4 13.4 0 0 1 13.4-13.3h30.1a3.8 3.8 0 0 0 3.8-3.8V103.9a3.8 3.8 0 0 0-3.8-3.8h-50.8a54 54 0 0 0-54 54V196.9H183.9a3.8 3.8 0 0 0-3.8 3.8V245a3.8 3.8 0 0 0 3.8 3.8H210.8Z"/></g></g></svg>