<svg xmlns="http://www.w3.org/2000/svg" xmlns:xlink="http://www.w3.org/1999/xlink" viewBox="0 0 500 462"><defs><style>.cls-1{fill:none;}.cls-2{fill:#fedfc5;}.cls-3{fill:#edb48a;}.cls-4{fill:#64bdff;}.cls-5{fill:#43a3f9;}.cls-6{fill:#f01054;}.cls-7{clip-path:url(#clip-path);}.cls-8{fill:#fd82ac;}.cls-9{fill:#fd6096;}.cls-10{fill:#e29c6d;}.cls-11{fill:#f9b200;}.cls-12{fill:#bddff4;}.cls-13{fill:#9cc6db;}.cls-14{fill:#9be058;}</style><clipPath id="clip-path" transform="translate(0 0)"><rect class="cls-1" width="500" height="462.89"/></clipPath></defs><title>Ico BT 6</title><g id="Layer_2" data-name="Layer 2"><g id="Layer_1-2" data-name="Layer 1"><path class="cls-2" d="M33,138.76a115.79,115.79,0,1,1,12,51.36,115.85,115.85,0,0,1-12-51.36Z" transform="translate(0 0)"/><path class="cls-3" d="M45,190.12a114.62,114.62,0,0,1,137.46-72.86A149.64,149.64,0,0,1,216,91a53.37,53.37,0,0,1-7-19.17,52.14,52.14,0,0,1,4-29.57A115.87,115.87,0,1,1,45,190.12Z" transform="translate(0 0)"/><path class="cls-4" d="M59.49,145.65a19.28,19.28,0,1,1,3.74,11.41,19.29,19.29,0,0,1-3.74-11.41Z" transform="translate(0 0)"/><path class="cls-5" d="M63.23,157.06A115.25,115.25,0,0,1,91.7,131.33a19.29,19.29,0,1,1-28.47,25.73Z" transform="translate(0 0)"/><path class="cls-6" d="M286.22,306.07H160.46L96,426.4a24.19,24.19,0,1,0,43,22.11c44-87.06,179.28-66.41,179.28-66.41Z" transform="translate(0 0)"/><g class="cls-7"><path class="cls-8" d="M51.33,239.49a61.95,61.95,0,1,0,46.81,111.3,95.39,95.39,0,0,0,111.28,5.55,95.42,95.42,0,0,0,174.88,1.58,95.39,95.39,0,1,0,33.5-187.67A137,137,0,0,0,186.3,131a102.39,102.39,0,0,0-135,108.45Z" transform="translate(0 0)"/><path class="cls-9" d="M0,299.52a61.33,61.33,0,0,1,1.86-14.17,62,62,0,0,0,91,38.54,9.94,9.94,0,0,1,10.61.53,95.49,95.49,0,0,0,97.06,6.71,10.07,10.07,0,0,1,13.37,4A95.41,95.41,0,0,0,381.16,334a10,10,0,0,1,10.29-5.08,96.88,96.88,0,0,0,13.17.9,95.42,95.42,0,0,0,94.18-80.23,96.23,96.23,0,0,1,1,20.94c-3,50.88-46.22,90.63-97.18,89.59a94.82,94.82,0,0,1-18.35-2.15,95.41,95.41,0,0,1-174.88-1.58,95.39,95.39,0,0,1-111.28-5.55A61.94,61.94,0,0,1,0,299.52Z" transform="translate(0 0)"/></g><path class="cls-9" d="M251.5,218.12a7.55,7.55,0,0,1-7.46-6.41c-5-32.65-28.68-61.55-60.42-73.62A7.55,7.55,0,0,1,189,124a112.17,112.17,0,0,1,46.19,33.08A107.23,107.23,0,0,1,259,209.44a7.55,7.55,0,0,1-6.32,8.6,9,9,0,0,1-1.14.08Z" transform="translate(0 0)"/><path class="cls-9" d="M77.83,300.32A7.52,7.52,0,0,1,72.35,298a107.46,107.46,0,0,1-28.47-57.29,7.54,7.54,0,0,1,14.9-2.34,92.55,92.55,0,0,0,24.54,49.27,7.55,7.55,0,0,1-5.49,12.73Z" transform="translate(0 0)"/><path class="cls-9" d="M384.24,365.56a7.63,7.63,0,0,1-2.6-.46,7.54,7.54,0,0,1-4.48-9.68,85.81,85.81,0,0,0-17.39-87.8,7.55,7.55,0,0,1,11.13-10.19,100.82,100.82,0,0,1,20.42,103.18,7.54,7.54,0,0,1-7.08,4.95Z" transform="translate(0 0)"/><path class="cls-6" d="M263.08,317.81a7.54,7.54,0,1,1,0-15.08h.08a7.54,7.54,0,0,1-.08,15.08Z" transform="translate(0 0)"/><path class="cls-9" d="M245.94,331.8a7.55,7.55,0,1,1,0-15.09H246a7.55,7.55,0,0,1-.08,15.09Z" transform="translate(0 0)"/><path class="cls-9" d="M290.24,344.88a7.55,7.55,0,0,1,0-15.09h.08a7.55,7.55,0,1,1-.08,15.09Z" transform="translate(0 0)"/><path class="cls-6" d="M51.29,337.94h0a7.54,7.54,0,0,1,.1-15.08h.08a7.55,7.55,0,0,1-.13,15.09Z" transform="translate(0 0)"/><g class="cls-7"><path class="cls-9" d="M93.09,212.59h0a7.55,7.55,0,1,1,.1-15.09h.08a7.55,7.55,0,0,1-.13,15.09Z" transform="translate(0 0)"/><path class="cls-10" d="M220.94,69.93a40.36,40.36,0,0,1,4.42-25.53c5.76-10.82,10.29-23.28,8.62-33.93a6.5,6.5,0,0,1,4.12-7.11l.05,0a52.51,52.51,0,0,1,36.75,98.37q-.86.32-1.71.6c-25.43,8.53-48.63-9.46-52.25-32.38Z" transform="translate(0 0)"/></g><path class="cls-11" d="M220.94,69.93a61.41,61.41,0,0,1,82.93,5.28,52.24,52.24,0,0,1-29,26.5q-.86.32-1.71.6c-25.43,8.53-48.63-9.46-52.25-32.38Z" transform="translate(0 0)"/><path class="cls-12" d="M276,102.81A10.06,10.06,0,0,1,286,112l12.67,150H224.72l12.66-150a10.07,10.07,0,0,1,10-9.22Z" transform="translate(0 0)"/><path class="cls-13" d="M237.38,112a10.07,10.07,0,0,1,10-9.22h8.4L242.36,262.07H224.72Z" transform="translate(0 0)"/><path class="cls-8" d="M179.45,292.77c0-39.51,37.44-71.54,83.63-71.54s83.63,32,83.63,71.54Z" transform="translate(0 0)"/><path class="cls-9" d="M205.73,248.25A7.55,7.55,0,0,1,201,234.83c16.91-13.63,39-21.14,62.09-21.14a100,100,0,0,1,54.34,15.55,7.55,7.55,0,0,1-8.17,12.69,85,85,0,0,0-46.17-13.15c-19.69,0-38.38,6.32-52.62,17.8a7.53,7.53,0,0,1-4.73,1.67Z" transform="translate(0 0)"/><path class="cls-9" d="M413,276H413a7.55,7.55,0,0,1,.05-15.09h.13A7.55,7.55,0,0,1,413,276Z" transform="translate(0 0)"/><path class="cls-9" d="M339.81,157.56h-.05a7.54,7.54,0,0,1,0-15.08h.13a7.51,7.51,0,0,1,7.46,7.59,7.58,7.58,0,0,1-7.58,7.5Z" transform="translate(0 0)"/><path class="cls-6" d="M153.76,75.21a19.29,19.29,0,1,1,19.29,19.28,19.29,19.29,0,0,1-19.29-19.28Z" transform="translate(0 0)"/><path class="cls-14" d="M86.65,86.75A19.29,19.29,0,1,1,105.94,106,19.29,19.29,0,0,1,86.65,86.75Z" transform="translate(0 0)"/></g></g></svg>