<svg xmlns="http://www.w3.org/2000/svg" width="100" viewBox="0 0 500 502.94"><defs><style>.cls-1{fill:#ed1054;}.cls-2{fill:#fa6093;}.cls-3{fill:#64baff;}.cls-4{fill:#6188a7;}</style></defs><title>Ico BT 1</title><g id="Layer_2" data-name="Layer 2"><g id="Layer_1-2" data-name="Layer 1"><path class="cls-1" d="M492.56,270.07a7.46,7.46,0,0,1-7.43-7.25l-.06-1.92a7.43,7.43,0,1,1,14.85-.6c0,.69.06,1.37.08,2.06a7.46,7.46,0,0,1-7.21,7.7Zm-2.2-26.8a7.46,7.46,0,0,1-7.36-6.48c-.09-.64-.17-1.28-.26-1.92a7.44,7.44,0,1,1,14.72-2.11c.09.68.19,1.36.28,2a7.47,7.47,0,0,1-6.38,8.4,6.73,6.73,0,0,1-1,.07Zm-4.9-26.44a7.45,7.45,0,0,1-7.22-5.73c-.15-.63-.3-1.26-.46-1.89a7.44,7.44,0,1,1,14.44-3.59l.48,2a7.46,7.46,0,0,1-7.24,9.23ZM477.9,191a7.44,7.44,0,0,1-7-5l-.65-1.83a7.44,7.44,0,1,1,14-5.07c.23.64.46,1.29.68,1.93a7.49,7.49,0,0,1-4.54,9.54,7.39,7.39,0,0,1-2.47.43Zm-10.16-24.88a7.44,7.44,0,0,1-6.73-4.29c-.27-.58-.54-1.16-.82-1.74a7.49,7.49,0,0,1,3.47-10,7.41,7.41,0,0,1,9.92,3.49c.3.61.59,1.23.88,1.85a7.5,7.5,0,0,1-3.55,9.95,7.36,7.36,0,0,1-3.17.72Zm-12.64-23.7a7.41,7.41,0,0,1-6.36-3.61l-1-1.66a7.5,7.5,0,0,1,2.45-10.28,7.4,7.4,0,0,1,10.22,2.46c.36.58.71,1.16,1.06,1.74A7.51,7.51,0,0,1,459,141.38a7.41,7.41,0,0,1-3.85,1.08Zm-15-22.28a7.4,7.4,0,0,1-5.95-3L433,115.65a7.5,7.5,0,0,1,1.39-10.48,7.4,7.4,0,0,1,10.42,1.4c.42.54.82,1.09,1.23,1.63a7.48,7.48,0,0,1-5.93,12ZM423,99.54a7.38,7.38,0,0,1-5.45-2.4l-1.32-1.42a7.51,7.51,0,0,1,.33-10.57,7.41,7.41,0,0,1,10.51.33l1.39,1.5A7.5,7.5,0,0,1,428,97.54a7.35,7.35,0,0,1-5,2Zm-19.15-18.8a7.41,7.41,0,0,1-4.92-1.86c-.47-.43-.95-.85-1.44-1.27a7.5,7.5,0,0,1-.74-10.55,7.39,7.39,0,0,1,10.48-.75l1.54,1.35a7.51,7.51,0,0,1,.66,10.56,7.41,7.41,0,0,1-5.58,2.52ZM382.88,64a7.35,7.35,0,0,1-4.31-1.39L377,61.49a7.5,7.5,0,0,1-1.8-10.42,7.41,7.41,0,0,1,10.36-1.81l1.66,1.18a7.51,7.51,0,0,1,1.73,10.43A7.4,7.4,0,0,1,382.88,64ZM360.35,49.49a7.49,7.49,0,0,1-3.68-1l-1.67-1a7.5,7.5,0,0,1-2.85-10.18,7.39,7.39,0,0,1,10.11-2.86l1.79,1a7.51,7.51,0,0,1,2.77,10.2,7.42,7.42,0,0,1-6.47,3.77ZM336.47,37.36a7.46,7.46,0,0,1-3-.64l-1.77-.78a7.47,7.47,0,0,1,5.91-13.72l1.88.83a7.48,7.48,0,0,1-3,14.31Zm-25-9.6a7.41,7.41,0,0,1-2.29-.37l-1.84-.59a7.47,7.47,0,0,1,4.47-14.26l1.95.62a7.49,7.49,0,0,1-2.29,14.6Zm-25.83-7a7.7,7.7,0,0,1-1.57-.17l-1.88-.4a7.47,7.47,0,0,1,3-14.64c.67.13,1.33.28,2,.42a7.48,7.48,0,0,1-1.55,14.79Zm-26.41-4.28a7.57,7.57,0,0,1-.81,0l-1.91-.2A7.48,7.48,0,0,1,258,1.39l2,.21a7.48,7.48,0,0,1-.8,14.91ZM232.54,15h-2a7.48,7.48,0,0,1,0-14.95h2a7.48,7.48,0,0,1-.05,15Z"/><path class="cls-2" d="M281.18,271.09a50.63,50.63,0,1,1-50.63-50.91,50.78,50.78,0,0,1,50.63,50.91Z"/><path class="cls-2" d="M307.92,278.57a7.46,7.46,0,0,1-7.43-7.48c0-38.77-31.37-70.32-69.94-70.32a7.48,7.48,0,0,1,0-15c46.77,0,84.81,38.26,84.81,85.28a7.46,7.46,0,0,1-7.44,7.48Z"/><path class="cls-1" d="M247.08,271.09a16.53,16.53,0,1,1-16.53-16.61,16.57,16.57,0,0,1,16.53,16.61Z"/><path class="cls-3" d="M230.55,502.94C103.43,502.94,0,398.94,0,271.09S103.43,39.25,230.55,39.25s230.56,104,230.56,231.84S357.68,502.94,230.55,502.94Zm0-432.41c-110,0-199.44,90-199.44,200.56s89.47,200.56,199.44,200.56S430,381.68,430,271.09,340.53,70.53,230.55,70.53Z"/><path class="cls-4" d="M337.19,367.76a144.77,144.77,0,0,0,0-193.33l1.34-1.34a7.52,7.52,0,0,0,0-10.58,7.41,7.41,0,0,0-10.52,0l-1.33,1.35a142.77,142.77,0,0,0-192.25,0l-1.33-1.35a7.41,7.41,0,0,0-10.52,0,7.52,7.52,0,0,0,0,10.58l1.34,1.34a144.74,144.74,0,0,0,0,193.33l-1.34,1.34a7.51,7.51,0,0,0,0,10.57,7.41,7.41,0,0,0,10.52,0l1.33-1.34a142.77,142.77,0,0,0,192.25,0l1.33,1.34a7.41,7.41,0,0,0,10.52,0,7.51,7.51,0,0,0,0-10.57ZM230.55,400.59A127.81,127.81,0,0,1,145,367.74l.17-.17a7.51,7.51,0,0,0,0-10.57,7.4,7.4,0,0,0-10.51,0l-.18.17a129.75,129.75,0,0,1,0-172.15l.18.17a7.4,7.4,0,0,0,10.51,0,7.51,7.51,0,0,0,0-10.57l-.17-.18a128,128,0,0,1,171.19,0l-.17.17a7.52,7.52,0,0,0,0,10.58,7.41,7.41,0,0,0,10.52,0l.16-.17a129.75,129.75,0,0,1,0,172.15l-.16-.17A7.41,7.41,0,0,0,316,357a7.51,7.51,0,0,0,0,10.57l.17.17a127.83,127.83,0,0,1-85.6,32.85Z"/><path class="cls-3" d="M426.45,278.57H337.7a7.48,7.48,0,0,1,0-15h88.75a7.48,7.48,0,0,1,0,15Z"/><path class="cls-3" d="M123.41,278.57H64.19a7.48,7.48,0,0,1,0-15h59.22a7.48,7.48,0,0,1,0,15Z"/><path class="cls-3" d="M218.12,173.05H243a7.48,7.48,0,0,0,0-15h-5v-84a7.44,7.44,0,1,0-14.87,0v84h-5a7.48,7.48,0,0,0,0,15Z"/><path class="cls-3" d="M243,369.14H218.12a7.48,7.48,0,0,0,0,14.95h5v54.3a7.44,7.44,0,1,0,14.87,0v-54.3h5a7.48,7.48,0,0,0,0-14.95Z"/></g></g></svg>