<svg xmlns="http://www.w3.org/2000/svg" width="100" xmlns:xlink="http://www.w3.org/1999/xlink" viewBox="0 0 500 458.41"><defs><style>.cls-1{fill:none;}.cls-2{fill:#e0f1ff;}.cls-3{fill:#badcf1;}.cls-4{fill:#98dd58;}.cls-5{fill:#1cc639;}.cls-6{fill:#6188a7;}.cls-7{fill:#f93e80;}.cls-8{fill:#0a0;}.cls-9{fill:#bdff66;}.cls-10{clip-path:url(#clip-path);}.cls-11{fill:#4e7690;}.cls-12{fill:#1682f8;}.cls-13{fill:#ffdc46;}</style><clipPath id="clip-path"><rect class="cls-1" width="500" height="458.98"/></clipPath></defs><title>Ico BT 2</title><g id="Layer_2" data-name="Layer 2"><g id="Layer_1-2" data-name="Layer 1"><path class="cls-2" d="M460.31,20.44V367.72a10.07,10.07,0,0,1-10.06,10.06H10.06A10.06,10.06,0,0,1,0,367.72V20.44A20.45,20.45,0,0,1,20.44,0H439.87a20.44,20.44,0,0,1,20.44,20.44Z"/><path class="cls-3" d="M460.31,355.88v11.84a10.07,10.07,0,0,1-10.06,10.06H356.52L332.73,354a21.33,21.33,0,0,1-3.37-25.72l-27.57-27.55a154.79,154.79,0,0,1-196.61-18.39c-60.3-60.3-60.3-158.43,0-218.73a154.68,154.68,0,0,1,237.1,196.62l27.56,27.54a21.28,21.28,0,0,1,25.73,3.4Z"/><path class="cls-3" d="M460.31,20.44V367.72a10.07,10.07,0,0,1-10.06,10.06h-22a10.07,10.07,0,0,0,10.06-10.06V20.44A20.45,20.45,0,0,0,417.87,0h22a20.44,20.44,0,0,1,20.44,20.44Z"/><path class="cls-4" d="M460.31,20.44V55.63H0V20.44A20.44,20.44,0,0,1,20.44,0H439.87a20.44,20.44,0,0,1,20.44,20.44Z"/><path class="cls-5" d="M315.33,55.63H113.75a154.73,154.73,0,0,1,201.58,0Z"/><path class="cls-5" d="M460.31,20.44V55.63h-22V20.44A20.45,20.45,0,0,0,417.87,0h22a20.44,20.44,0,0,1,20.44,20.44Z"/><path class="cls-4" d="M293.52,275.36l23.42-23.43,64.56,64.56-23.43,23.42Z"/><path class="cls-6" d="M357.14,173A142.59,142.59,0,1,1,214.55,30.37,142.59,142.59,0,0,1,357.14,173Z"/><path class="cls-7" d="M297.12,255.53c-.4.4-.8.8-1.2,1.18a116.34,116.34,0,0,1-82.17,33,116.59,116.59,0,0,1-81-33.47c-.25-.23-.5-.48-.75-.73a116.78,116.78,0,1,1,165.15,0Z"/><path class="cls-5" d="M295.91,154.3V256.71a116.3,116.3,0,0,1-82.16,33,114.81,114.81,0,0,1-22.62-2.36V154.3a52.39,52.39,0,0,1,104.78,0Z"/><path class="cls-8" d="M295.91,154.3V256.71a116.22,116.22,0,0,1-28.39,20.35V154.3a52.42,52.42,0,0,0-38.2-50.44,52.4,52.4,0,0,1,66.59,50.44Z"/><path class="cls-9" d="M213.75,219.19v70.54a116.59,116.59,0,0,1-81-33.47V219.19a40.52,40.52,0,0,1,81,0Z"/><g class="cls-10"><path class="cls-4" d="M213.75,219.19v70.54a114.81,114.81,0,0,1-22.62-2.36c-1.88-.38-3.76-.81-5.62-1.29V219.19a40.35,40.35,0,0,0-11.86-28.64,40.82,40.82,0,0,0-10.76-7.72c-1.23-.6-2.5-1.14-3.79-1.63a40.54,40.54,0,0,1,54.65,38Z"/><path class="cls-6" d="M497.28,423,464.61,455.7a9.28,9.28,0,0,1-13.1,0L341.27,345.45a9.25,9.25,0,0,1,0-13.09l32.67-32.68a9.26,9.26,0,0,1,13.1,0L497.28,409.92a9.26,9.26,0,0,1,0,13.1Z"/><path class="cls-11" d="M387,299.67,497.29,409.92a9.28,9.28,0,0,1,0,13.1l-13,13a9.28,9.28,0,0,0,0-13.1L374,312.69a9.28,9.28,0,0,0-13.1,0l13-13a9.28,9.28,0,0,1,13.1,0Z"/></g><path class="cls-4" d="M442.9,451.07a7.55,7.55,0,0,1-5.34-12.88l41.11-41.1a7.54,7.54,0,1,1,10.67,10.67l-41.1,41.1a7.56,7.56,0,0,1-5.34,2.21Z"/><path class="cls-7" d="M46.72,35.94a7.57,7.57,0,0,1,0-15.13h0a7.5,7.5,0,0,1,7.54,7.46v.08a7.53,7.53,0,0,1-7.49,7.59Z"/><path class="cls-12" d="M66.32,35.94a7.57,7.57,0,0,1,0-15.13h0a7.52,7.52,0,0,1,7.55,7.46v.08a7.54,7.54,0,0,1-7.5,7.59Z"/><path class="cls-13" d="M85.92,35.94a7.57,7.57,0,0,1,0-15.13h.05a7.51,7.51,0,0,1,7.54,7.46v.08A7.54,7.54,0,0,1,86,35.94Z"/><path class="cls-6" d="M49.46,306.44H45.33a7.54,7.54,0,0,1,0-15.08h4.13a7.54,7.54,0,1,1,0,15.08Z"/><path class="cls-6" d="M93.16,306.44H67.43a7.54,7.54,0,0,1,0-15.08H93.16a7.54,7.54,0,1,1,0,15.08Z"/><path class="cls-6" d="M93.16,326.38H45.33a7.55,7.55,0,0,1,0-15.09H93.16a7.55,7.55,0,0,1,0,15.09Z"/><path class="cls-6" d="M93.16,346.31H45.33a7.55,7.55,0,0,1,0-15.09H93.16a7.55,7.55,0,0,1,0,15.09Z"/><path class="cls-4" d="M419.64,250.71a7.53,7.53,0,0,1-7.54-7.54V87.65a7.55,7.55,0,0,1,15.09,0V243.17a7.54,7.54,0,0,1-7.55,7.54Z"/><path class="cls-4" d="M304.83,169.14h-20.1a7.55,7.55,0,1,1,0-15.09h20.1a7.55,7.55,0,0,1,0,15.09Z"/><path class="cls-8" d="M199.69,161.8H179.58a7.55,7.55,0,0,1,0-15.09h20.11a7.55,7.55,0,0,1,0,15.09Z"/><path class="cls-4" d="M304.83,196.43h-20.1a7.55,7.55,0,1,1,0-15.09h20.1a7.55,7.55,0,0,1,0,15.09Z"/><path class="cls-4" d="M304.83,224.17h-20.1a7.55,7.55,0,1,1,0-15.09h20.1a7.55,7.55,0,0,1,0,15.09Z"/><path class="cls-9" d="M220.21,241.75h-20.1a7.55,7.55,0,0,1,0-15.09h20.1a7.55,7.55,0,1,1,0,15.09Z"/><path class="cls-9" d="M220.21,270.61h-20.1a7.55,7.55,0,0,1,0-15.09h20.1a7.55,7.55,0,1,1,0,15.09Z"/><path class="cls-4" d="M145.53,216.6a7.5,7.5,0,0,1-2.27-.35l-19.17-6a7.55,7.55,0,0,1,4.54-14.4l19.17,6a7.54,7.54,0,0,1-2.27,14.74Z"/><path class="cls-8" d="M206.26,133.63a7.56,7.56,0,0,1-4.17-1.26l-15.15-10.06a7.55,7.55,0,1,1,8.35-12.57l15.15,10.06a7.55,7.55,0,0,1-4.18,13.83Z"/><path class="cls-8" d="M232.86,168.93a7.55,7.55,0,0,1-7.54-7.54V150.23a7.55,7.55,0,1,1,15.09,0v11.16a7.55,7.55,0,0,1-7.55,7.54Z"/><path class="cls-8" d="M232.86,203.09a7.55,7.55,0,0,1-7.54-7.54V184.39a7.55,7.55,0,1,1,15.09,0v11.16a7.55,7.55,0,0,1-7.55,7.54Z"/><path class="cls-4" d="M163.54,246.45a7.55,7.55,0,0,1-7.55-7.54V227.75a7.55,7.55,0,1,1,15.09,0v11.16a7.54,7.54,0,0,1-7.54,7.54Z"/><path class="cls-4" d="M163.55,197.51a7.51,7.51,0,0,1-6.23-3.28L144.81,176a7.55,7.55,0,0,1,12.45-8.53l12.51,18.25a7.54,7.54,0,0,1-6.22,11.81Z"/><path class="cls-8" d="M230.16,116.93a7.56,7.56,0,0,1-6.89-4.45l-7.44-16.57a7.55,7.55,0,1,1,13.77-6.18L237,106.29a7.54,7.54,0,0,1-6.88,10.64Z"/><path class="cls-4" d="M257.32,116.93a7.54,7.54,0,0,1-6.87-10.64l7.43-16.56a7.55,7.55,0,1,1,13.77,6.18l-7.44,16.57a7.55,7.55,0,0,1-6.89,4.45Z"/><path class="cls-9" d="M197.68,205.56A7.54,7.54,0,0,1,192,193.1L203.24,180a7.55,7.55,0,1,1,11.45,9.83l-11.28,13.14a7.51,7.51,0,0,1-5.73,2.63Z"/></g></g></svg>