<svg xmlns="http://www.w3.org/2000/svg" xmlns:xlink="http://www.w3.org/1999/xlink" viewBox="0 0 500 493.39"><defs><style>.cls-1{fill:none;}.cls-2{fill:#f9b200;}.cls-3{fill:#f80;}.cls-4{fill:#f01054;}.cls-5{clip-path:url(#clip-path);}.cls-6{fill:#fd82ac;}.cls-7{fill:#fd6096;}.cls-8{fill:#ffdf46;}</style><clipPath id="clip-path"><rect class="cls-1" width="500" height="494.14"/></clipPath></defs><title>Ico BT 5</title><g id="Layer_2" data-name="Layer 2"><g id="Layer_1-2" data-name="Layer 1"><path class="cls-2" d="M458.5,142.7l-28.71,37.7-23.94,31.44A6.17,6.17,0,0,1,395,206.62l7.9-31.91h-22a6.16,6.16,0,0,1-5.61-8.72l7.11-15.55L391,131.58H369.58a6.17,6.17,0,0,1-5.46-9l31.52-60a6.15,6.15,0,0,1,5.45-3.3h45.57a6.17,6.17,0,0,1,5.44,9.07l-11.44,21.4h12.61a6.16,6.16,0,0,1,5.51,8.93L441.66,132.8H453.6a6.16,6.16,0,0,1,4.9,9.9Z"/><path class="cls-3" d="M429.79,180.4l-23.94,31.44A6.17,6.17,0,0,1,395,206.62l7.9-31.91h-22a6.16,6.16,0,0,1-5.61-8.72l7.11-15.55a114.64,114.64,0,0,1,47.47,30Z"/><path class="cls-2" d="M122.2,182.1H100.83l15.74,34.41a6.17,6.17,0,0,1-5.6,8.73h-22l7.89,31.9c1.61,6.49-6.83,10.53-10.89,5.21L41,203.41l-7.76-10.18a6.16,6.16,0,0,1,4.9-9.9H50.12L33,149.18a6.16,6.16,0,0,1,5.5-8.92H51.12L39.69,118.85a6.16,6.16,0,0,1,5.43-9.06H90.69a6.16,6.16,0,0,1,5.46,3.29L110.5,140.4l17.17,32.67a6.17,6.17,0,0,1-5.47,9Z"/><path class="cls-3" d="M127.67,173.07a6.17,6.17,0,0,1-5.47,9H100.83l15.74,34.41a6.17,6.17,0,0,1-5.6,8.73h-22l7.89,31.9c1.61,6.49-6.83,10.53-10.89,5.21L41,203.41a106.86,106.86,0,0,1,32.58-12.55A148.33,148.33,0,0,1,110.5,140.4Z"/><path class="cls-4" d="M181.67,413.48S317,392.83,361,479.9a24.19,24.19,0,1,0,43-22.11L339.54,337.46H213.78Z"/><g class="cls-5"><path class="cls-6" d="M448.67,270.88a102.45,102.45,0,0,0-135-108.46A137,137,0,0,0,82.2,201.63,95.39,95.39,0,1,0,115.7,389.3a95.42,95.42,0,0,0,174.88-1.57,95.41,95.41,0,0,0,111.28-5.56,61.94,61.94,0,1,0,46.81-111.29Z"/><path class="cls-7" d="M500,330.91a61.93,61.93,0,0,1-98.13,51.26,95.35,95.35,0,0,1-111.27,5.56A95.42,95.42,0,0,1,115.7,389.3a95.61,95.61,0,0,1-18.35,2.16c-51,1-94.15-38.71-97.18-89.6a96.11,96.11,0,0,1,1-20.93,95.43,95.43,0,0,0,107.36,79.32,10.06,10.06,0,0,1,10.28,5.08,95.41,95.41,0,0,0,167.27,1.19,10.07,10.07,0,0,1,13.37-4,95.45,95.45,0,0,0,97.07-6.71,10,10,0,0,1,10.6-.53,62,62,0,0,0,91-38.53A61.26,61.26,0,0,1,500,330.91Z"/></g><path d="M248.51,249.51a7.57,7.57,0,0,1-7.47-8.68,107.26,107.26,0,0,1,23.79-52.39A112.06,112.06,0,0,1,311,155.37a7.54,7.54,0,0,1,5.36,14.1c-31.74,12.07-55.46,41-60.42,73.63a7.56,7.56,0,0,1-7.45,6.41Z"/><path class="cls-7" d="M422.17,331.7A7.54,7.54,0,0,1,416.68,319a92.52,92.52,0,0,0,24.54-49.26,7.54,7.54,0,1,1,14.9,2.33,107.39,107.39,0,0,1-28.47,57.29,7.48,7.48,0,0,1-5.48,2.37Z"/><path class="cls-7" d="M115.76,397a7.55,7.55,0,0,1-7.08-4.95A100.84,100.84,0,0,1,129.1,288.81,7.55,7.55,0,0,1,140.23,299a85.77,85.77,0,0,0-17.38,87.79,7.55,7.55,0,0,1-4.49,9.68,7.41,7.41,0,0,1-2.6.47Z"/><path class="cls-7" d="M236.92,349.2a7.55,7.55,0,0,1-.12-15.09h.12A7.55,7.55,0,0,1,237,349.2Z"/><path class="cls-4" d="M254.06,363.19a7.58,7.58,0,0,1-7.58-7.5,7.5,7.5,0,0,1,7.46-7.59h.12a7.55,7.55,0,0,1,.05,15.09Z"/><path class="cls-4" d="M209.76,376.27a7.55,7.55,0,0,1-.13-15.09h.08a7.55,7.55,0,1,1,.1,15.09Z"/><path class="cls-4" d="M448.71,369.32a7.55,7.55,0,1,1-.08-15.09h.08a7.55,7.55,0,0,1,0,15.09Z"/><path class="cls-4" d="M406.91,244a7.55,7.55,0,1,1-.08-15.09h.08a7.55,7.55,0,0,1,0,15.09Z"/><path class="cls-8" d="M219.24,15.75l-57.77,110a11.3,11.3,0,0,0,10,16.55h39.18l-28.84,63.09a11.3,11.3,0,0,0,10.28,16h40.4L218,279.84c-2.95,11.9,12.52,19.32,20,9.56L334.5,162.67a11.3,11.3,0,0,0-9-18.14H303.63L335,81.93a11.3,11.3,0,0,0-10.11-16.36H301.79l21-39.24a11.3,11.3,0,0,0-10-16.63H229.24a11.32,11.32,0,0,0-10,6.05Z"/><path class="cls-6" d="M153.29,324.15c0-39.5,37.44-71.53,83.63-71.53s83.63,32,83.63,71.53Z"/><path class="cls-7" d="M294.27,279.64a7.48,7.48,0,0,1-4.73-1.68c-14.24-11.47-32.93-17.79-52.62-17.79a84.88,84.88,0,0,0-46.17,13.15,7.55,7.55,0,1,1-8.17-12.69,100,100,0,0,1,54.34-15.55c23.13,0,45.18,7.5,62.09,21.13a7.55,7.55,0,0,1-4.74,13.43Z"/><path class="cls-7" d="M87,307.36a7.55,7.55,0,1,1-.08-15.09H87a7.55,7.55,0,0,1,0,15.09Z"/><path class="cls-7" d="M160.2,188.94a7.55,7.55,0,1,1-.08-15.09h.07a7.55,7.55,0,1,1,0,15.09Z"/><path class="cls-8" d="M122.28,66.64a7.55,7.55,0,0,1-7.55-7.5V57.25a7.55,7.55,0,0,1,7.51-7.58h0a7.54,7.54,0,0,1,7.54,7.51v1.88a7.54,7.54,0,0,1-7.51,7.58Z"/><path class="cls-8" d="M122.34,94.34a7.54,7.54,0,0,1-7.54-7.51V85a7.54,7.54,0,0,1,7.51-7.58h0a7.55,7.55,0,0,1,7.55,7.51v1.88a7.55,7.55,0,0,1-7.51,7.58Z"/><path class="cls-8" d="M135.21,79.53a7.55,7.55,0,0,1,0-15.1h1.91a7.55,7.55,0,0,1,0,15.09h-1.92Z"/><path class="cls-8" d="M107.52,79.59a7.55,7.55,0,0,1,0-15.09h1.88a7.55,7.55,0,0,1,.08,15.09h-1.92Z"/><path class="cls-8" d="M371,17a7.55,7.55,0,0,1-7.54-7.51V7.58A7.54,7.54,0,0,1,371,0h0a7.55,7.55,0,0,1,7.55,7.51V9.39A7.54,7.54,0,0,1,371,17Z"/><path class="cls-8" d="M371.06,44.67a7.55,7.55,0,0,1-7.54-7.51V35.28a7.55,7.55,0,1,1,15.09-.07v1.88a7.55,7.55,0,0,1-7.51,7.58Z"/><path class="cls-8" d="M383.93,29.85a7.55,7.55,0,0,1,0-15.09h1.91a7.55,7.55,0,0,1,0,15.09h-1.92Z"/><path class="cls-8" d="M356.24,29.92a7.55,7.55,0,0,1,0-15.1h1.91a7.55,7.55,0,0,1,0,15.09h-1.92Z"/><path class="cls-8" d="M474.54,191.81A7.54,7.54,0,0,1,467,184.3v-1.88a7.56,7.56,0,0,1,7.51-7.58h0a7.55,7.55,0,0,1,7.54,7.51v1.88a7.54,7.54,0,0,1-7.51,7.58Z"/><path class="cls-8" d="M474.6,219.51a7.55,7.55,0,0,1-7.55-7.51v-1.88a7.55,7.55,0,0,1,7.51-7.58h0a7.55,7.55,0,0,1,7.55,7.51v1.88a7.55,7.55,0,0,1-7.51,7.58Z"/><path class="cls-8" d="M487.47,204.7a7.55,7.55,0,0,1,0-15.09l1.88,0h0a7.55,7.55,0,0,1,0,15.1h-1.92Z"/><path class="cls-8" d="M459.77,204.76a7.55,7.55,0,0,1,0-15.09h1.91a7.55,7.55,0,0,1,0,15.09h-1.92Z"/></g></g></svg>