<svg xmlns="http://www.w3.org/2000/svg" width="100" xmlns:xlink="http://www.w3.org/1999/xlink" viewBox="0 0 383.03 500"><defs><style>.cls-1{fill:none;}.cls-2{fill:#f93e80;}.cls-3{clip-path:url(#clip-path);}.cls-4{fill:#ed1054;}.cls-5{fill:#ffdc46;}.cls-6{fill:#f6af00;}.cls-7{fill:#a4c4d0;}.cls-8{fill:#819ebd;}.cls-9{fill:#fa80a9;}.cls-10{fill:#fa6093;}.cls-11{fill:#df996d;}.cls-12{fill:#eab187;}.cls-13{fill:#7881e7;}.cls-14{fill:#98dd58;}.cls-15{fill:#43a0f6;}</style><clipPath id="clip-path"><rect class="cls-1" width="383.79" height="500"/></clipPath></defs><title>Ico BT 3</title><g id="Layer_2" data-name="Layer 2"><g id="Layer_1-2" data-name="Layer 1"><path class="cls-2" d="M184,189.63,36.13,271.58,184,353.53,332,271.58Z"/><g class="cls-3"><path class="cls-4" d="M332,271.58,184.05,353.52,36.13,271.58,55,261.15l129.1,71.51,129.09-71.51Z"/><path class="cls-5" d="M314.16,130.12a129.51,129.51,0,0,1-26.54,78.74,251.62,251.62,0,0,0-44.15,90.89,229.73,229.73,0,0,0-4.68,23.44c-.31,2.06-.58,4.13-.83,6.2H130.13q-.36-3.11-.82-6.2a236.86,236.86,0,0,0-4.59-23.39A242.6,242.6,0,0,0,81,209.59a129.68,129.68,0,0,1-27-84.48C56.54,58,110.7,3.3,177.76.15a130.12,130.12,0,0,1,136.4,130Z"/></g><path class="cls-6" d="M243.46,299.75a232.44,232.44,0,0,0-4.67,23.44l-11.19,6.2H190Z"/><g class="cls-3"><path class="cls-6" d="M124.72,299.8l53.4,29.59H140.48l-11.17-6.2a236.86,236.86,0,0,0-4.59-23.39Z"/><path class="cls-6" d="M314.17,130.12a129.43,129.43,0,0,1-26.55,78.74c-26.95,35.36-44.41,76.82-49.66,120.53H207c5.24-43.71,22.71-85.17,49.66-120.53A130.11,130.11,0,0,0,168.53.9c3.06-.34,6.13-.6,9.23-.75a130.13,130.13,0,0,1,136.41,130Z"/></g><path class="cls-7" d="M256.59,344.86v79.33a19.34,19.34,0,0,1-19.34,19.34H130.84a19.35,19.35,0,0,1-19.35-19.34V344.86a19.36,19.36,0,0,1,19.35-19.35H237.25a19.35,19.35,0,0,1,19.34,19.35Z"/><path class="cls-8" d="M234.6,325.51l-50.55,28-50.56-28h37.64l12.92,7.15L197,325.51Z"/><path d="M250.79,372.75H119.23a7.57,7.57,0,0,1,0-15.14H250.79a7.57,7.57,0,1,1,0,15.14Z"/><path d="M250.79,411.44H119.23a7.57,7.57,0,0,1,0-15.14H250.79a7.57,7.57,0,1,1,0,15.14Z"/><path class="cls-2" d="M259.58,149A36.54,36.54,0,0,1,225,197.31a33.31,33.31,0,0,1-4.13-.25,22.08,22.08,0,0,1-21.75,18.31H199a15.15,15.15,0,0,1-14.94-15.2V55.76a11.61,11.61,0,0,1,3.13-7.94A34,34,0,0,1,245.6,66.44a48.82,48.82,0,0,1,14,82.52Z"/><path class="cls-4" d="M220.93,204.64a6.72,6.72,0,0,1-1.18-.1,43.18,43.18,0,0,1-23-11.42,7.57,7.57,0,0,1,10.39-11,28.15,28.15,0,0,0,15,7.47,7.57,7.57,0,0,1-1.16,15Z"/><path class="cls-4" d="M218.29,90.25a7.56,7.56,0,0,1-10.69.47,25.68,25.68,0,0,0-21.08-6.54,7.83,7.83,0,0,1-2.47-.05V69.26a3,3,0,0,1,.32-.06,40.79,40.79,0,0,1,33.45,10.36,7.56,7.56,0,0,1,.47,10.69Z"/><path class="cls-9" d="M184.05,55.76V200.17a15.15,15.15,0,0,1-14.94,15.2h-.19a22.09,22.09,0,0,1-21.75-18.31,33.07,33.07,0,0,1-4.13.25A36.52,36.52,0,0,1,108.51,149a48.83,48.83,0,0,1,14-82.52A34,34,0,0,1,180.9,47.82a11.54,11.54,0,0,1,3.15,7.94Z"/><path class="cls-10" d="M147.16,204.64a7.57,7.57,0,0,1-1.16-15,28.08,28.08,0,0,0,15-7.47,7.57,7.57,0,0,1,10.39,11,43.27,43.27,0,0,1-23,11.43,7.81,7.81,0,0,1-1.18.09Z"/><path class="cls-10" d="M184.05,69.26V84.13a7.84,7.84,0,0,1-2.47.05,25.68,25.68,0,0,0-21.08,6.54,7.57,7.57,0,1,1-10.23-11.16A40.79,40.79,0,0,1,183.72,69.2c.11,0,.22,0,.33.06Z"/><path class="cls-4" d="M266.65,146.27a44.07,44.07,0,0,0-31.76-27.56,40.08,40.08,0,0,0-6.22-19.13A7.56,7.56,0,1,0,216,107.77a25.4,25.4,0,0,1,3.91,13.82,25,25,0,0,1-5.26,15.69,7.57,7.57,0,1,0,11.78,9.5,38.68,38.68,0,0,0,6.79-12.91,29.45,29.45,0,0,1,19.34,17.78,7.55,7.55,0,0,0,7.07,4.87,7.69,7.69,0,0,0,2.69-.49,7.56,7.56,0,0,0,4.38-9.76Z"/><path class="cls-10" d="M148.23,121.59a25.4,25.4,0,0,1,3.91-13.82,7.56,7.56,0,1,0-12.72-8.19,40.2,40.2,0,0,0-6.23,19.13,44.11,44.11,0,0,0-31.75,27.56,7.57,7.57,0,1,0,14.15,5.38,29.45,29.45,0,0,1,19.34-17.78,38.48,38.48,0,0,0,6.78,12.91,7.56,7.56,0,1,0,11.78-9.49,25.05,25.05,0,0,1-5.26-15.7Z"/><path class="cls-11" d="M332,271.58v142a10.07,10.07,0,0,1-5.2,8.82L188.93,498.74l0,0a9.91,9.91,0,0,1-4.84,1.24V353.52Z"/><path class="cls-12" d="M184.05,353.52V500a10.09,10.09,0,0,1-4.74-1.18l-.16-.08L41.33,422.37a10.07,10.07,0,0,1-5.2-8.82v-142Z"/><g class="cls-3"><path class="cls-12" d="M362.94,344.59,232.49,416.86a10,10,0,0,1-13.44-3.68l-35-59.65L332,271.58l34.76,59.23a10,10,0,0,1-3.78,13.78Z"/><path class="cls-11" d="M5.15,344.59l130.44,72.27A10,10,0,0,0,149,413.18l35-59.65L36.13,271.58,1.37,330.81a10,10,0,0,0,3.78,13.78Z"/></g><path class="cls-13" d="M26.84,211.71a7.56,7.56,0,0,1-7.56-7.53V202.3a7.57,7.57,0,0,1,7.53-7.61h0a7.57,7.57,0,0,1,7.56,7.53v1.89a7.56,7.56,0,0,1-7.53,7.6Z"/><path class="cls-13" d="M26.91,239.49A7.57,7.57,0,0,1,19.34,232v-1.88a7.56,7.56,0,0,1,7.53-7.61h0A7.58,7.58,0,0,1,34.47,230v1.88A7.56,7.56,0,0,1,27,239.49Z"/><path class="cls-13" d="M39.82,224.63a7.57,7.57,0,0,1,0-15.13H41.7a7.57,7.57,0,0,1,0,15.13H39.82Z"/><path class="cls-13" d="M12,224.69a7.57,7.57,0,0,1,0-15.13h1.93a7.57,7.57,0,0,1,0,15.14H12Z"/><path class="cls-14" d="M360.6,162.35a7.55,7.55,0,0,1-7.56-7.53l0-1.89a7.58,7.58,0,0,1,7.53-7.6h0a7.57,7.57,0,0,1,7.57,7.53v1.88a7.57,7.57,0,0,1-7.53,7.61Z"/><path class="cls-14" d="M360.66,190.13a7.57,7.57,0,0,1-7.56-7.54v-1.88a7.56,7.56,0,0,1,7.53-7.6h0a7.56,7.56,0,0,1,7.56,7.52v1.89a7.58,7.58,0,0,1-7.52,7.61Z"/><path class="cls-14" d="M373.57,175.27a7.57,7.57,0,0,1,0-15.14h1.92a7.57,7.57,0,0,1,0,15.14h-1.93Z"/><path class="cls-14" d="M345.8,175.33a7.57,7.57,0,0,1,0-15.14h1.92a7.57,7.57,0,0,1,0,15.13H345.8Z"/><path class="cls-2" d="M39.79,31.76a7.57,7.57,0,0,1-7.56-7.53V22.35a7.56,7.56,0,0,1,7.52-7.61h0a7.56,7.56,0,0,1,7.57,7.53v1.88a7.58,7.58,0,0,1-7.53,7.61Z"/><path class="cls-2" d="M39.85,59.53A7.56,7.56,0,0,1,32.29,52V50.12a7.58,7.58,0,0,1,7.53-7.61h0A7.57,7.57,0,0,1,47.41,50v1.89a7.56,7.56,0,0,1-7.52,7.6Z"/><path class="cls-2" d="M52.77,44.68a7.57,7.57,0,0,1,0-15.14h1.92a7.57,7.57,0,0,1,0,15.14H52.77Z"/><path class="cls-2" d="M25,44.74a7.57,7.57,0,0,1,0-15.13l1.88,0h0a7.57,7.57,0,0,1,0,15.14H25Z"/><path class="cls-2" d="M331.94,213.41a7.57,7.57,0,0,1-7.57-7.53V204a7.57,7.57,0,1,1,15.13-.08v1.88a7.56,7.56,0,0,1-7.53,7.61Z"/><path class="cls-2" d="M332,241.18a7.57,7.57,0,0,1-7.57-7.52v-1.89a7.57,7.57,0,0,1,7.53-7.6h0a7.57,7.57,0,0,1,7.57,7.53v1.88a7.56,7.56,0,0,1-7.53,7.6Z"/><path class="cls-2" d="M344.91,226.33a7.57,7.57,0,0,1,0-15.14h1.92a7.57,7.57,0,0,1,0,15.13h-1.92Z"/><path class="cls-2" d="M317.13,226.39a7.57,7.57,0,0,1,0-15.13H319a7.57,7.57,0,1,1,.07,15.13h-1.92Z"/><path class="cls-15" d="M339.46,84.89a7.57,7.57,0,0,1-2.1-14.84l7.73-2.23a7.57,7.57,0,1,1,4.2,14.54l-7.73,2.23a7.67,7.67,0,0,1-2.1.3Z"/><path class="cls-15" d="M330.77,67.36a7.49,7.49,0,0,1-5.24-2.11,7.57,7.57,0,0,1-.21-10.7l5.58-5.79a7.57,7.57,0,0,1,10.91,10.49L336.23,65a7.53,7.53,0,0,1-5.46,2.32Z"/><path class="cls-15" d="M349.27,106.27a7.61,7.61,0,0,1-1.82-.22l-7.81-1.93a7.57,7.57,0,0,1,3.63-14.69l7.81,1.93a7.57,7.57,0,0,1-1.81,14.91Z"/><path class="cls-5" d="M14.35,150.66A7.57,7.57,0,0,1,14,135.53l8-.42a7.57,7.57,0,1,1,.79,15.12l-8,.42Z"/><path class="cls-5" d="M24.86,130.84a7.54,7.54,0,0,1-3.43-.83l-7.17-3.65a7.56,7.56,0,1,1,6.87-13.48l7.17,3.65a7.57,7.57,0,0,1-3.44,14.31Z"/><path class="cls-5" d="M20.13,173.65A7.56,7.56,0,0,1,16,159.74l6.74-4.38A7.57,7.57,0,1,1,31,168.05l-6.74,4.38a7.52,7.52,0,0,1-4.12,1.22Z"/></g></g></svg>