<svg xmlns="http://www.w3.org/2000/svg" width="100" xmlns:xlink="http://www.w3.org/1999/xlink" viewBox="0 0 500 482.16"><defs><style>.cls-1{fill:none;}.cls-2{clip-path:url(#clip-path);}.cls-3{fill:#f93e80;}.cls-4{fill:#939deb;}.cls-5{fill:#fbc8a7;}.cls-6{fill:#ffab82;}.cls-7{fill:#fbdcc2;}.cls-8{fill:#4a5be2;}.cls-9{fill:#ffe893;}.cls-10{fill:#ff8500;}</style><clipPath id="clip-path" transform="translate(0 -0.96)"><rect class="cls-1" width="500" height="483.37"/></clipPath></defs><title>Ico BT 4</title><g id="Layer_2" data-name="Layer 2"><g id="Layer_1-2" data-name="Layer 1"><g class="cls-2"><path class="cls-3" d="M323.13,468.38a7.44,7.44,0,0,1-2.62-14.4l.91-.34a7.43,7.43,0,0,1,5.27,13.9l-1,.36a7.2,7.2,0,0,1-2.6.48Z" transform="translate(0 -0.96)"/><path class="cls-3" d="M244.62,483.12a7.44,7.44,0,0,1-.1-14.87l1.91,0a7.43,7.43,0,0,1,.35,14.86l-2.05,0Zm-24.73-.93-.67,0-2-.19a7.44,7.44,0,0,1,1.46-14.8l1.91.18a7.44,7.44,0,0,1-.66,14.84Zm51.4-1a7.43,7.43,0,0,1-.94-14.8l1.89-.25a7.43,7.43,0,1,1,2,14.72l-2,.27a7.69,7.69,0,0,1-.95.06Zm-77.84-3a7.14,7.14,0,0,1-1.52-.16l-2-.42a7.44,7.44,0,1,1,3.12-14.54l1.89.41a7.43,7.43,0,0,1-1.5,14.71Zm104.12-2a7.44,7.44,0,0,1-1.78-14.66l1.86-.46a7.43,7.43,0,1,1,3.7,14.39l-2,.51a7.39,7.39,0,0,1-1.8.22Zm-130-5a7.57,7.57,0,0,1-2.34-.37l-2-.66a7.43,7.43,0,0,1,4.8-14.07l1.83.62a7.43,7.43,0,0,1-2.34,14.48Zm-24.87-9.86a7.41,7.41,0,0,1-3.13-.69l-1.86-.87a7.43,7.43,0,0,1,6.38-13.43l1.75.82a7.43,7.43,0,0,1-3.14,14.17Zm-23.57-12.65a7.35,7.35,0,0,1-3.88-1.1l-1.74-1.07A7.43,7.43,0,0,1,121.42,434l1.64,1a7.43,7.43,0,0,1-3.89,13.77Zm-22-15.26A7.35,7.35,0,0,1,92.63,432L91,430.72a7.43,7.43,0,0,1,9.26-11.63l1.51,1.18a7.44,7.44,0,0,1-4.59,13.29ZM77.13,415.91a7.4,7.4,0,0,1-5.22-2.14l-1.45-1.44A7.43,7.43,0,1,1,81,401.83l1.36,1.35a7.43,7.43,0,0,1-5.21,12.73ZM59.18,396.09a7.41,7.41,0,0,1-5.78-2.76l-1.29-1.61a7.43,7.43,0,1,1,11.66-9.22c.39.5.79,1,1.19,1.49a7.43,7.43,0,0,1-5.78,12.1ZM43.61,374.37a7.43,7.43,0,0,1-6.29-3.46l-1.08-1.72a7.43,7.43,0,0,1,12.62-7.86l1,1.63a7.44,7.44,0,0,1-6.27,11.41ZM442.05,369a7.43,7.43,0,0,1-6.37-11.25l1-1.64a7.43,7.43,0,0,1,12.83,7.5c-.34.59-.69,1.19-1,1.77a7.43,7.43,0,0,1-6.39,3.62ZM30.61,351a7.43,7.43,0,0,1-6.69-4.2c-.3-.61-.59-1.22-.88-1.84a7.43,7.43,0,1,1,13.43-6.36c.28.58.55,1.16.83,1.73A7.43,7.43,0,0,1,30.61,351Zm423.81-5.74a7.56,7.56,0,0,1-3.06-.66,7.44,7.44,0,0,1-3.72-9.83c.27-.59.53-1.17.78-1.75A7.43,7.43,0,1,1,462,339c-.27.63-.55,1.25-.83,1.88a7.44,7.44,0,0,1-6.78,4.38Zm-434-19a7.44,7.44,0,0,1-7-5l-.66-1.93a7.43,7.43,0,0,1,14.08-4.77l.63,1.82a7.43,7.43,0,0,1-7,9.87Zm443.6-6a7.1,7.1,0,0,1-2.25-.36,7.44,7.44,0,0,1-4.84-9.33c.2-.61.39-1.22.58-1.84a7.43,7.43,0,1,1,14.2,4.39c-.19.65-.4,1.3-.61,2a7.43,7.43,0,0,1-7.08,5.19ZM13,300.61a7.45,7.45,0,0,1-7.25-5.82c-.14-.67-.29-1.34-.43-2a7.43,7.43,0,1,1,14.53-3.12l.42,1.87a7.44,7.44,0,0,1-5.64,8.88,7.55,7.55,0,0,1-1.63.19Zm457.56-6.24a7.14,7.14,0,0,1-1.43-.14,7.45,7.45,0,0,1-5.87-8.72c.13-.63.24-1.25.36-1.88a7.43,7.43,0,0,1,14.62,2.71c-.13.68-.25,1.35-.38,2a7.45,7.45,0,0,1-7.3,6ZM8.72,274.22a7.45,7.45,0,0,1-7.39-6.65c-.07-.68-.14-1.36-.2-2a7.43,7.43,0,0,1,14.8-1.44c.06.64.12,1.28.19,1.91a7.44,7.44,0,0,1-6.61,8.18c-.26,0-.53,0-.79,0Zm465.49-6.36-.59,0a7.44,7.44,0,0,1-6.83-8c0-.64.1-1.27.14-1.92A7.44,7.44,0,0,1,481.77,259l-.15,2a7.44,7.44,0,0,1-7.41,6.84ZM7.43,247.52h0A7.44,7.44,0,0,1,0,240c0-.69,0-1.38,0-2.06a7.43,7.43,0,0,1,7.42-7.31h.14a7.45,7.45,0,0,1,7.3,7.57l0,1.91a7.44,7.44,0,0,1-7.43,7.38Zm467.34-6.41a7.42,7.42,0,0,1-7.42-7.15c0-.65-.05-1.29-.07-1.93a7.43,7.43,0,1,1,14.85-.64c0,.68.05,1.34.07,2a7.42,7.42,0,0,1-7.15,7.7ZM9.16,220.83c-.3,0-.6,0-.91-.05a7.43,7.43,0,0,1-6.48-8.28c.09-.68.17-1.35.26-2a7.43,7.43,0,1,1,14.74,1.92l-.24,1.91a7.43,7.43,0,0,1-7.37,6.52Zm463.16-6.33a7.41,7.41,0,0,1-7.33-6.33l-.3-1.9a7.44,7.44,0,0,1,14.69-2.33c.1.68.21,1.35.31,2a7.44,7.44,0,0,1-6.25,8.46,7.12,7.12,0,0,1-1.12.08Zm-458.41-20a7.44,7.44,0,0,1-7.23-9.18c.16-.66.31-1.32.48-2A7.43,7.43,0,1,1,21.58,187l-.45,1.87a7.44,7.44,0,0,1-7.22,5.7Zm453-6.2a7.43,7.43,0,0,1-7.17-5.49q-.26-.94-.51-1.86a7.43,7.43,0,1,1,14.32-4l.54,2a7.43,7.43,0,0,1-5.24,9.11,7.24,7.24,0,0,1-1.94.26ZM21.64,168.93a7.45,7.45,0,0,1-7-10c.23-.64.47-1.28.71-1.92a7.44,7.44,0,0,1,13.92,5.23c-.23.6-.45,1.21-.68,1.81a7.44,7.44,0,0,1-7,4.88Zm436.79-6a7.44,7.44,0,0,1-6.92-4.69c-.23-.59-.47-1.18-.71-1.77a7.43,7.43,0,0,1,13.76-5.62c.26.63.52,1.27.77,1.9a7.44,7.44,0,0,1-6.9,10.18ZM32.28,144.39a7.44,7.44,0,0,1-6.63-10.79l.93-1.83a7.44,7.44,0,0,1,13.22,6.81c-.3.57-.59,1.14-.88,1.72a7.42,7.42,0,0,1-6.64,4.09Zm414.85-5.65a7.43,7.43,0,0,1-6.55-3.91c-.3-.56-.61-1.12-.92-1.68a7.43,7.43,0,1,1,13-7.16l1,1.79a7.43,7.43,0,0,1-6.53,11ZM45.66,121.22a7.43,7.43,0,0,1-6.2-11.51L40.58,108a7.44,7.44,0,0,1,12.36,8.27c-.35.54-.71,1.07-1.06,1.6a7.41,7.41,0,0,1-6.22,3.35ZM433.13,116a7.43,7.43,0,0,1-6.11-3.19l-1.1-1.57a7.43,7.43,0,1,1,12.13-8.59c.4.56.79,1.11,1.17,1.67A7.43,7.43,0,0,1,433.13,116ZM61.6,99.74a7.43,7.43,0,0,1-5.71-12.19L57.21,86A7.43,7.43,0,0,1,68.55,95.6c-.42.49-.83,1-1.24,1.48a7.41,7.41,0,0,1-5.71,2.66Zm355-4.8A7.41,7.41,0,0,1,411,92.42c-.42-.49-.85-1-1.27-1.44a7.43,7.43,0,0,1,11.07-9.92l1.36,1.53a7.43,7.43,0,0,1-5.58,12.35ZM79.87,80.22a7.43,7.43,0,0,1-5.13-12.81L76.22,66A7.43,7.43,0,1,1,86.4,76.84c-.47.44-.94.88-1.39,1.33a7.47,7.47,0,0,1-5.14,2Zm318-4.3a7.41,7.41,0,0,1-5-1.92l-1.44-1.29A7.43,7.43,0,0,1,401.3,61.6L402.81,63a7.43,7.43,0,0,1-5,13Zm-297.59-13a7.43,7.43,0,0,1-4.49-13.36l1.63-1.23a7.44,7.44,0,0,1,8.88,11.93l-1.54,1.15a7.42,7.42,0,0,1-4.48,1.51ZM377,59.14a7.48,7.48,0,0,1-4.32-1.38l-1.57-1.12a7.43,7.43,0,0,1,8.55-12.16l1.67,1.18A7.43,7.43,0,0,1,377,59.14ZM122.44,48a7.44,7.44,0,0,1-3.78-13.84l1.75-1A7.43,7.43,0,1,1,127.88,46l-1.66,1a7.43,7.43,0,0,1-3.78,1Zm232-3.16a7.39,7.39,0,0,1-3.59-.93L349.1,43a7.43,7.43,0,1,1,7.11-13l1.8,1a7.43,7.43,0,0,1-3.62,13.93Zm-208.2-9.09a7.43,7.43,0,0,1-3-14.23l1.86-.82A7.43,7.43,0,1,1,151,34.34l-1.75.77a7.4,7.4,0,0,1-3,.65ZM330.3,33.24a7.47,7.47,0,0,1-2.83-.56L325.69,32a7.43,7.43,0,1,1,5.55-13.79l1.9.78a7.43,7.43,0,0,1-2.84,14.3ZM171.19,26.31A7.44,7.44,0,0,1,169,11.78l1.95-.6a7.43,7.43,0,1,1,4.33,14.21l-1.84.57a7.19,7.19,0,0,1-2.22.35ZM305,24.48a7.42,7.42,0,0,1-2-.28l-1.85-.52a7.43,7.43,0,1,1,3.93-14.33c.66.17,1.31.36,2,.54a7.44,7.44,0,0,1-2,14.59ZM197.11,19.79a7.43,7.43,0,0,1-1.38-14.73l2-.38a7.43,7.43,0,0,1,2.66,14.63l-1.88.35a7.47,7.47,0,0,1-1.41.13Zm81.83-1.11a7.81,7.81,0,0,1-1.18-.09c-.64-.1-1.28-.21-1.92-.3A7.43,7.43,0,0,1,278.11,3.6c.66.09,1.33.2,2,.31a7.43,7.43,0,0,1-1.17,14.77ZM223.62,16.3a7.44,7.44,0,0,1-.54-14.85l2-.14a7.43,7.43,0,1,1,1,14.83l-1.92.13-.55,0Zm28.73-.39H252l-1.9-.08A7.43,7.43,0,0,1,250.36,1h.29l2,.09a7.43,7.43,0,0,1-.35,14.86Z" transform="translate(0 -0.96)"/></g><path class="cls-3" d="M427.43,390.64a7.44,7.44,0,0,1-5.92-11.92l.6-.79a7.43,7.43,0,1,1,11.85,9l-.6.79a7.42,7.42,0,0,1-5.93,2.95Z" transform="translate(0 -0.96)"/><path class="cls-4" d="M424,215.76l-33-5.47a32.66,32.66,0,0,1-24.79-19.87c-.05-.11-.09-.22-.14-.34a32.69,32.69,0,0,1,3.45-31.63L389,131.24a7.4,7.4,0,0,0-.79-9.55L361.44,95a7.37,7.37,0,0,0-9.54-.79l-27.21,19.47a32.71,32.71,0,0,1-31.64,3.46l-.33-.14a32.66,32.66,0,0,1-19.87-24.79l-5.47-33A7.41,7.41,0,0,0,260.07,53h-37.8a7.4,7.4,0,0,0-7.3,6.19l-5.47,33A32.66,32.66,0,0,1,189.63,117l-.34.14a32.69,32.69,0,0,1-31.63-3.46L130.45,94.18a7.39,7.39,0,0,0-9.55.79L94.17,121.69a7.4,7.4,0,0,0-.78,9.55l19.47,27.21a32.71,32.71,0,0,1,3.46,31.63c0,.12-.09.23-.14.34a32.66,32.66,0,0,1-24.79,19.87l-33,5.47a7.41,7.41,0,0,0-6.2,7.3v37.8a7.42,7.42,0,0,0,6.2,7.31l33,5.47a32.64,32.64,0,0,1,24.79,19.87l.14.33a32.73,32.73,0,0,1-3.46,31.64L93.39,352.69a7.38,7.38,0,0,0,.78,9.54L120.9,389a7.4,7.4,0,0,0,9.55.79l27.21-19.47a32.66,32.66,0,0,1,31.63-3.46l.34.14a32.66,32.66,0,0,1,19.87,24.78l5.47,33a7.4,7.4,0,0,0,7.3,6.19h37.8a7.41,7.41,0,0,0,7.31-6.19l5.47-33A32.66,32.66,0,0,1,292.72,367l.33-.14a32.68,32.68,0,0,1,31.64,3.46l27.21,19.47a7.38,7.38,0,0,0,9.54-.79l26.73-26.73a7.39,7.39,0,0,0,.79-9.54l-19.48-27.21A32.7,32.7,0,0,1,366,293.84l.14-.33A32.64,32.64,0,0,1,391,273.64l33-5.47a7.41,7.41,0,0,0,6.19-7.31v-37.8a7.4,7.4,0,0,0-6.19-7.3Zm-182.8,93.6A67.4,67.4,0,1,1,308.57,242a67.39,67.39,0,0,1-67.4,67.39Z" transform="translate(0 -0.96)"/><path class="cls-3" d="M139.79,249.4a7.43,7.43,0,0,1-7.43-7.43,108.49,108.49,0,0,1,28.57-73.5,7.43,7.43,0,0,1,11,10A93.66,93.66,0,0,0,147.23,242a7.44,7.44,0,0,1-7.44,7.44Z" transform="translate(0 -0.96)"/><path class="cls-5" d="M479.94,467.31H353.37l-37.44-65.14-42.42-.43a7.58,7.58,0,0,1-7.49-7.57V339H240.19a7.55,7.55,0,0,1-7.58-7.28c-.66-17.75-.12-64.11,20.53-96.55.32-.5.63-1,1-1.49,6.07-9.12,16.43-17.58,22-24.31H430.23a95.64,95.64,0,0,1,6.47,26,98.11,98.11,0,0,1-.78,26L417.2,370.82a7.09,7.09,0,0,0,1.09,5.07Z" transform="translate(0 -0.96)"/><path class="cls-6" d="M480,467.31H460.23l-61.65-91.43a7,7,0,0,1-1.09-5.06L416.2,261.39a98,98,0,0,0,.8-26,96.14,96.14,0,0,0-6.48-26h19.71a95.39,95.39,0,0,1,6.47,26,98,98,0,0,1-.78,26L417.21,370.82a6.93,6.93,0,0,0,1.09,5.07Z" transform="translate(0 -0.96)"/><g class="cls-2"><path class="cls-7" d="M435.92,261.4,418.1,365.56A7,7,0,0,1,409,371l-50.79-17a7.59,7.59,0,0,1-5.17-7.18V251.15H327.63a7.57,7.57,0,0,1-7.57-7.57V207.42H429.43a96.63,96.63,0,0,1,6.49,54Z" transform="translate(0 -0.96)"/><path class="cls-8" d="M464.73,429.58c-15.52,5.36-82.17,27.58-127.45,29.85a7.56,7.56,0,0,0-7.16,7.56v5.5a7.57,7.57,0,0,0,7.57,7.57H492.43a7.58,7.58,0,0,0,7.54-8.21c-.79-9.94-5.82-27.14-28.69-41.5a7.61,7.61,0,0,0-6.55-.77Z" transform="translate(0 -0.96)"/></g><path class="cls-9" d="M434.78,227.13H258.92a41,41,0,0,1-41-41V148.27a7.57,7.57,0,0,1,7.57-7.58H378a64.39,64.39,0,0,1,64.39,64.39v14.48a7.56,7.56,0,0,1-7.57,7.57Z" transform="translate(0 -0.96)"/><path class="cls-6" d="M324.21,341.85a31,31,0,0,1-10,23.46c-7.06,6.48-17.53,10.54-31.1,12.07a104.74,104.74,0,0,1-11.5.62c-2.67,0-4.67-.09-5.62-.16V363c.2,0,.42,0,.62,0,7.2.59,28,.19,37.55-8.63,3.47-3.2,5.15-7.29,5.15-12.5a7.44,7.44,0,1,1,14.87,0Z" transform="translate(0 -0.96)"/><path class="cls-10" d="M281.8,294.84a15.92,15.92,0,0,1-14.37-8.95,7.44,7.44,0,0,1,13.34-6.57,1.13,1.13,0,0,0,1,.65,1.14,1.14,0,0,0,1-.64,7.43,7.43,0,0,1,13.34,6.56,15.91,15.91,0,0,1-14.36,8.95Z" transform="translate(0 -0.96)"/></g></g></svg>