<svg xmlns="http://www.w3.org/2000/svg" xmlns:xlink="http://www.w3.org/1999/xlink" viewBox="0 0 729.7 603.05"><defs><style>.cls-1{fill:none;}.cls-2{clip-path:url(#clip-path);}.cls-3{fill:#1a5c74;}.cls-4{fill:#80c3cf;}.cls-5{fill:#8d1e5b;}.cls-6{fill:#4a215e;}.cls-7{fill:#e76225;}.cls-8{fill:#f7d653;}</style><clipPath id="clip-path" transform="translate(-55 -18.12)"><rect class="cls-1" width="612" height="664"/></clipPath></defs><title>imagne 4</title><g id="Layer_2" data-name="Layer 2"><g id="Layer_1-2" data-name="Layer 1"><g class="cls-2"><path class="cls-3" d="M384.3,390.69l-3-1.2c-3.68-1.47-7.06-2.82-10.19-4.11-31-10.6-71.15-17.82-96-20.75C137.51,348.45,78.82,302.42,78.82,210.71A150.48,150.48,0,0,1,94,145.78c-27.95,39.41-35,73.92-35.13,74.45-.26,1.08-19.78,82.49,31.78,146.93,46.37,58,112.19,63.33,147.56,66.2,3.71.3,7.12.58,10.17.88,9.83,1,22.88,1.45,36.7,1.94,38.58,1.36,86.44,3.06,113.06,17,32.07,16.8,41.34,42.74,43.52,61.31,11-18.35,14.23-36.87,9.71-55.21C442.9,425.07,410,401,384.3,390.69Z" transform="translate(-55 -18.12)"/><path class="cls-4" d="M276.61,351.48a587.64,587.64,0,0,1,60.63,10.72,61.09,61.09,0,0,1-6.52-15.57c-14.39-50.39-47.15-54.44-73.47-57.69l-3.77-.47c-9.1-1.17-28-3.61-45.54-12.78-47.87-22.58-75.19-52.5-81-88.84-3.24-20.19.36-42.2,10.68-65.41l2.06-4.46a211.3,211.3,0,0,1,15.59-27c-40,32.73-63.18,76.2-63.18,120.7C92.07,294.16,147.26,336.26,276.61,351.48Z" transform="translate(-55 -18.12)"/><path class="cls-5" d="M159,224.64a120.36,120.36,0,0,0,15.38,14.9,75.08,75.08,0,0,1-5.48-36.44c2.46-23.76,16.71-47.34,40.12-66.39.73-.6,1.48-1.2,2.22-1.79,31.64-25.12,72.83-44.68,125.92-59.8,69.47-19.79,145.52-21.51,219.92-5C629.51,86.25,679.22,111.46,713,136.42a349.9,349.9,0,0,0-77-59.61,445.44,445.44,0,0,0-47.58-22.37C518.46,26.41,456.64,20.37,456,20.31h-.11c-.63-.08-63.76-7-141.11,4.33-39.66,7.89-134.94,33.05-166.2,96.68l-1.91,4.13c-7.86,18-10.12,38-6.69,59.33C142.26,198.86,148.82,212.65,159,224.64Z" transform="translate(-55 -18.12)"/><path class="cls-6" d="M472.33,72a432.25,432.25,0,0,0-167.27,28.36,330.9,330.9,0,0,1,44.08-2.78,465.91,465.91,0,0,1,51.31,3c59.75,6.67,113.91,21.62,161,44.42,39.8,19.28,169.67,92.11,169.67,219.67a157.06,157.06,0,0,1-31.94,94.89c28.47-16.39,52.48-42.75,67.76-75a184.73,184.73,0,0,0,17.3-65.76c.39-5.76.54-11.5.44-17C781.92,141.81,591.63,76,472.33,72Z" transform="translate(-55 -18.12)"/><path class="cls-7" d="M661.86,233.51c14.76,26.57,22.59,56.25,22.19,85.89C683.16,385,644.59,439.88,578.23,470c-41.75,19-66.47,44.09-73.46,74.64-6.57,28.71,3.66,57.06,14,76.49-6.53-12.28,4-43.42,8.89-55.65,11.85-29.61,34-51.11,63.41-63.11,20.24-8.26,41.8-13.44,61.05-23.81,42.13-22.67,65.77-66.59,65.77-113.92C717.87,309.51,692.09,265.8,661.86,233.51Z" transform="translate(-55 -18.12)"/><path class="cls-8" d="M491.86,541.75c7.95-34.8,35.17-63,80.89-83.77,61.5-28,97.24-78.53,98.06-138.76a157.27,157.27,0,0,0-12.79-64c5,18.3,7.62,44.31-3.54,72.2-18.53,46.35-64.42,67.28-94.79,81.13-4,1.82-7.71,3.52-11.13,5.16-17.79,8.54-71.91,34.51-82.42,101-4.58,29,12.25,61.41,29.65,86C490.14,583.18,487.09,562.61,491.86,541.75Z" transform="translate(-55 -18.12)"/></g></g></g></svg>