<svg xmlns="http://www.w3.org/2000/svg" xmlns:xlink="http://www.w3.org/1999/xlink" viewBox="0 0 1793.15 829.09"><defs><style>.cls-1{fill:none;}.cls-2{isolation:isolate;}.cls-3{clip-path:url(#clip-path);}.cls-4{opacity:0.41;mix-blend-mode:overlay;fill:url(#linear-gradient);}.cls-5{fill:url(#linear-gradient-2);}.cls-6{fill:url(#linear-gradient-3);}.cls-20,.cls-7{opacity:0.4;}.cls-13,.cls-15,.cls-17,.cls-20,.cls-30,.cls-7{mix-blend-mode:multiply;}.cls-7{fill:url(#linear-gradient-4);}.cls-8{fill:#21005c;}.cls-9{fill:url(#linear-gradient-5);}.cls-10,.cls-20{fill:#ffc0ab;}.cls-11{fill:url(#linear-gradient-6);}.cls-12{fill:url(#linear-gradient-7);}.cls-13,.cls-17,.cls-30{opacity:0.5;}.cls-13{fill:url(#linear-gradient-8);}.cls-14{fill:url(#linear-gradient-9);}.cls-15{fill:url(#linear-gradient-10);}.cls-16{fill:url(#linear-gradient-11);}.cls-17{fill:url(#linear-gradient-12);}.cls-18{fill:url(#linear-gradient-13);}.cls-19{fill:url(#linear-gradient-14);}.cls-21{fill:url(#linear-gradient-15);}.cls-22{fill:url(#linear-gradient-16);}.cls-23{fill:url(#linear-gradient-17);}.cls-24{fill:url(#linear-gradient-18);}.cls-25{fill:url(#linear-gradient-19);}.cls-26,.cls-30{fill:#7b00e8;}.cls-27{fill:url(#linear-gradient-20);}.cls-28{fill:url(#linear-gradient-21);}.cls-29{fill:url(#linear-gradient-22);}.cls-31{fill:url(#linear-gradient-23);}.cls-32{fill:url(#linear-gradient-24);}.cls-33{fill:url(#linear-gradient-25);}.cls-34{fill:url(#linear-gradient-26);}.cls-35{fill:url(#linear-gradient-27);}.cls-36{fill:#565656;}.cls-37{fill:#9da7ac;}.cls-38{fill:#ffddb2;}.cls-39{fill:#ffe6cc;}.cls-40{fill:url(#linear-gradient-28);}.cls-41{fill:url(#linear-gradient-29);}.cls-42{fill:url(#linear-gradient-30);}.cls-43{fill:url(#linear-gradient-31);}.cls-44{fill:#ea78f1;}.cls-45{fill:#ffa2f3;}.cls-46{fill:#1a5c74;}.cls-47{fill:#80c3cf;}.cls-48{fill:#8d1e5b;}.cls-49{fill:#4a215e;}.cls-50{fill:#e76225;}.cls-51{fill:#f7d653;}.cls-52{font-size:51.93px;font-family:Montserrat-ExtraBold, Montserrat;font-weight:800;}.cls-53{font-size:52.97px;font-family:Montserrat-SemiBold, Montserrat;font-weight:600;}.cls-54{letter-spacing:0em;}.cls-55{font-size:50px;font-family:Montserrat-Thin, Montserrat;font-weight:200;}.cls-56{letter-spacing:-0.02em;}</style><clipPath id="clip-path" transform="translate(-24.96 -179.97)"><rect class="cls-1" width="1938.33" height="1065.52" rx="10.66"/></clipPath><linearGradient id="linear-gradient" x1="923.16" y1="86.29" x2="918.34" y2="772.3" gradientUnits="userSpaceOnUse"><stop offset="0" stop-color="#fff"/><stop offset="1" stop-color="#fff" stop-opacity="0.3"/></linearGradient><linearGradient id="linear-gradient-2" x1="1381.71" y1="945.36" x2="1135.72" y2="1031.01" gradientTransform="translate(-55.69 -134.48) rotate(-4.34)" gradientUnits="userSpaceOnUse"><stop offset="0" stop-color="#21005c"/><stop offset="1" stop-color="#4300cc"/></linearGradient><linearGradient id="linear-gradient-3" x1="1428.27" y1="975.71" x2="1370.51" y2="1129.07" xlink:href="#linear-gradient-2"/><linearGradient id="linear-gradient-4" x1="1370.09" y1="945.17" x2="1304.14" y2="1120.28" xlink:href="#linear-gradient-2"/><linearGradient id="linear-gradient-5" x1="1480" y1="783.69" x2="1351.62" y2="952.86" gradientTransform="translate(-55.69 -134.48) rotate(-4.34)" gradientUnits="userSpaceOnUse"><stop offset="0" stop-color="#ffde28"/><stop offset="1" stop-color="#ff7b20"/></linearGradient><linearGradient id="linear-gradient-6" x1="1567.89" y1="802.02" x2="1474.93" y2="769.03" xlink:href="#linear-gradient-2"/><linearGradient id="linear-gradient-7" x1="1283.04" y1="936.42" x2="1566.74" y2="936.42" gradientTransform="translate(-55.69 -134.48) rotate(-4.34)" gradientUnits="userSpaceOnUse"><stop offset="0" stop-color="#d200ff"/><stop offset="1" stop-color="#5f00cf"/></linearGradient><linearGradient id="linear-gradient-8" x1="1283.04" y1="936.95" x2="1566.72" y2="936.95" xlink:href="#linear-gradient-7"/><linearGradient id="linear-gradient-9" x1="1325.47" y1="850.49" x2="1285.77" y2="809.47" xlink:href="#linear-gradient-2"/><linearGradient id="linear-gradient-10" x1="1324.9" y1="850.36" x2="1286.8" y2="810.99" xlink:href="#linear-gradient-2"/><linearGradient id="linear-gradient-11" x1="1234.75" y1="773.97" x2="1300.3" y2="821.65" gradientTransform="translate(-55.69 -134.48) rotate(-4.34)" gradientUnits="userSpaceOnUse"><stop offset="0" stop-color="#ffff68"/><stop offset="1" stop-color="#ff7b20"/></linearGradient><linearGradient id="linear-gradient-12" x1="1235.64" y1="775.33" x2="1299.71" y2="821.92" xlink:href="#linear-gradient-11"/><linearGradient id="linear-gradient-13" x1="1543.3" y1="854.54" x2="1476.86" y2="944.99" xlink:href="#linear-gradient-5"/><linearGradient id="linear-gradient-14" x1="947.53" y1="1875.56" x2="914.63" y2="1946.74" gradientTransform="translate(-484.63 -771.85) rotate(-27.2)" xlink:href="#linear-gradient-11"/><linearGradient id="linear-gradient-15" x1="61.3" y1="1901.19" x2="209.11" y2="1901.19" gradientTransform="translate(-524.16 -853.78) rotate(-28.23)" xlink:href="#linear-gradient-5"/><linearGradient id="linear-gradient-16" x1="126.21" y1="1790.51" x2="259.08" y2="1790.51" gradientTransform="translate(-524.16 -853.78) rotate(-28.23)" gradientUnits="userSpaceOnUse"><stop offset="0" stop-color="#bb00f7"/><stop offset="1" stop-color="#4800ac"/></linearGradient><linearGradient id="linear-gradient-17" x1="409.15" y1="1768.32" x2="320.28" y2="1768.32" xlink:href="#linear-gradient-16"/><linearGradient id="linear-gradient-18" x1="108.84" y1="1919.52" x2="259.55" y2="1832.37" gradientTransform="translate(-524.16 -853.78) rotate(-28.23)" gradientUnits="userSpaceOnUse"><stop offset="0" stop-color="#970093"/><stop offset="0.99" stop-color="#3b2bff"/></linearGradient><linearGradient id="linear-gradient-19" x1="-1813.41" y1="-1603.25" x2="-1625.56" y2="-1627.86" gradientTransform="matrix(0.19, 0.98, -0.98, 0.19, -1035.43, 2521.81)" xlink:href="#linear-gradient-2"/><linearGradient id="linear-gradient-20" x1="-467.38" y1="-1158.66" x2="-534.17" y2="-1067.36" gradientTransform="translate(-196.44 1640.98) rotate(45)" gradientUnits="userSpaceOnUse"><stop offset="0" stop-color="#fff2ff"/><stop offset="0.99" stop-color="#eedcff" stop-opacity="0"/></linearGradient><linearGradient id="linear-gradient-21" x1="-503.4" y1="-1140.5" x2="-545.56" y2="-1091.22" gradientTransform="translate(-196.44 1640.98) rotate(45)" gradientUnits="userSpaceOnUse"><stop offset="0" stop-color="#fff2ff"/><stop offset="0.99" stop-color="#e6dcff" stop-opacity="0.1"/></linearGradient><linearGradient id="linear-gradient-22" x1="-467.47" y1="-1127.72" x2="-497.28" y2="-1080.13" xlink:href="#linear-gradient-21"/><linearGradient id="linear-gradient-23" x1="1295.1" y1="359.6" x2="1381.89" y2="388.79" gradientUnits="userSpaceOnUse"><stop offset="0" stop-color="#ff94ff"/><stop offset="1" stop-color="#ffc2ff"/></linearGradient><linearGradient id="linear-gradient-24" x1="1281.33" y1="373.87" x2="1220.76" y2="376.17" gradientUnits="userSpaceOnUse"><stop offset="0" stop-color="#e87be0"/><stop offset="1" stop-color="#ffa6e0"/></linearGradient><linearGradient id="linear-gradient-25" x1="1325.78" y1="377.44" x2="1310.94" y2="448.57" gradientUnits="userSpaceOnUse"><stop offset="0" stop-color="#c80ff4"/><stop offset="1" stop-color="#5507a9"/></linearGradient><linearGradient id="linear-gradient-26" x1="1358.1" y1="216.4" x2="1402" y2="216.4" gradientUnits="userSpaceOnUse"><stop offset="0" stop-color="#45005c"/><stop offset="1" stop-color="#6700cc"/></linearGradient><linearGradient id="linear-gradient-27" x1="1330.43" y1="383.31" x2="1288.19" y2="340.37" xlink:href="#linear-gradient-23"/><linearGradient id="linear-gradient-28" x1="546.25" y1="687.33" x2="642.51" y2="687.33" gradientTransform="matrix(-0.74, 0.74, -0.82, -0.67, 1727.07, 845.34)" gradientUnits="userSpaceOnUse"><stop offset="0" stop-color="#f59242"/><stop offset="1" stop-color="#f5b742"/></linearGradient><linearGradient id="linear-gradient-29" x1="549.02" y1="687.33" x2="639.74" y2="687.33" gradientTransform="matrix(-0.74, 0.74, -0.82, -0.67, 1727.07, 845.31)" gradientUnits="userSpaceOnUse"><stop offset="0" stop-color="#ffae4c"/><stop offset="1" stop-color="#ffd34c"/></linearGradient><linearGradient id="linear-gradient-30" x1="1198.83" y1="993.41" x2="1072.68" y2="927.76" xlink:href="#linear-gradient-24"/><linearGradient id="linear-gradient-31" x1="-4422.91" y1="1237.44" x2="-4549.05" y2="1171.79" gradientTransform="matrix(-0.98, -0.18, 0.18, -0.98, -3986.05, 751.11)" xlink:href="#linear-gradient-24"/></defs><title>imagen 3</title><g class="cls-2"><g id="Layer_2" data-name="Layer 2"><g id="Layer_1-2" data-name="Layer 1"><g class="cls-3"><path class="cls-4" d="M586.26,617.2c-3.59-2.1-8.44-4.09-11.63-1.47-2.15,1.77-2.41,4.85-2.27,7.57.87,16.93,10.95,32.1,22.36,45,14.2,16,137.86,105.69,145.94,68.9,4.27-19.39-53-51.24-66.86-61.52C645.64,654.78,616.65,634.91,586.26,617.2ZM1814.09,251.36c6-22.69,7.41-50.81-11-66-14.22-11.75-42.91-8.13-52.78,50.6-29.71,176.87-112.39,247.69-141.17,286.16-8.08,10.8-2,23.52,20.44,8.59C1751.47,449.45,1803.7,290.79,1814.09,251.36ZM1565.64,634.2c3.52-5.77,6.66-13.65,2-18.6-3.51-3.73-9.59-3.5-14.7-2.5-24,4.68-44.47,19.48-64,33.86-25.81,19-51.88,38.25-74,61.42-7,7.35-25.43,21.65-18.1,32,6.85,9.65,28,2,36.41-.5C1489.4,723.49,1536.19,682.5,1565.64,634.2ZM1249.81,761.57c23.69-10.82,40.36-31,27.63-46.73-20-24.7-64.93,10-99,24-68.63,28.19-150.18,35.27-148.93,44.63,1.23,9.19,20.23,11.23,27,12.15C1121.48,804.6,1180.29,793.32,1249.81,761.57Zm333.31-290.81c-6.45-28.86-48-2.62-61.94,7.47l-51.25,37.09c-5,3.65-10.34,7.6-12.61,13.3-4,10.11,3.69,21.85,14,26s22.11,2.66,33,0c12.83-3.13,25.47-7.81,36-15.59C1556.08,527.33,1587.93,492.34,1583.12,470.76ZM129.62,265.61c-1.56,4.5,1.13,9.72,5.41,12a14.51,14.51,0,0,0,6.4,1.68,19.53,19.53,0,0,0,7.81-1.38c2.94-1.14,5.84-3.18,6.55-6.17a8.26,8.26,0,0,0-.17-4C152.47,255.84,134.1,252.73,129.62,265.61Zm1542.77,9.87c-6.6,2.08-12.53,7.8-12.36,14.52.1,4.06,2.36,7.81,5.17,10.82,6.67,7.15,17.43,11,27,8.29s16.29-12.79,14.35-22.24C1701.22,261,1679,273.4,1672.39,275.48ZM230.61,336.76c40.55,36.48,38.92,16.48,28.88,1.77-6-8.72-27-39-37.77-38.92C208,299.76,208.15,316.54,230.61,336.76Zm-205.34,77C121.1,537.47,232.19,648.49,361.5,739.53c4.74,3.34,10.9-3.09,6.15-6.68C242.79,638.54,126.57,532.17,27.84,412.1,26.62,410.62,24.07,412.2,25.27,413.75Z" transform="translate(-24.96 -179.97)"/><path class="cls-5" d="M1387.23,737.51,1367,688.17S1170,664.8,1131.8,865.48a38.6,38.6,0,0,0,19.69,2.77C1196.66,744.51,1313.33,718.08,1387.23,737.51Z" transform="translate(-24.96 -179.97)"/><path class="cls-6" d="M1417.78,758.92c-11.32,21.53-117.69,114.36,46.67,173.85l3.6,16.76c-195.44-21.25-144.4-200.64-83.3-232.09C1400.75,676.94,1417.78,758.92,1417.78,758.92Z" transform="translate(-24.96 -179.97)"/><path class="cls-7" d="M1384.75,717.44c-1.55.8-3.09,1.72-4.63,2.7l-13.09-32a208.58,208.58,0,0,0-32.12-.48c5,18,19.64,30.23,33.82,42.43.94.8,1.87,1.6,2.79,2.41l1.71,1.48A158.8,158.8,0,0,1,1385,745.22c8.65,9.35,14.3,21,18.41,33.18,6.58-8.61,12.23-15.36,14.4-19.48C1417.78,758.92,1400.75,676.94,1384.75,717.44Z" transform="translate(-24.96 -179.97)"/><path class="cls-8" d="M1460.35,948.6s10.22,34.89,14.76,33.73,5-52.45,2-54.7-15.76,4.39-15.76,4.39Z" transform="translate(-24.96 -179.97)"/><path class="cls-8" d="M1152.37,865.88l-19.53-2.67s-40.25,1.6-40,5.6S1146.39,888,1149.27,885,1152.37,865.88,1152.37,865.88Z" transform="translate(-24.96 -179.97)"/><path class="cls-9" d="M1509.61,607.69l-10.32-11.75s.91-15.67-16.78-19.5a26.31,26.31,0,0,0-5.15-.56l0,0c-42.89-8.11-73.1,51.13-103.42,48.58-36.39-3.06-37.54-24.73-37.54-24.73l-22,13.49s15.23,31.4,58.42,33.84c18.52,1,39.27-9.43,56.94-21.72-17,23.3-41.66,47.3-89.14,53.25-1.56,28.35,51,45.21,69.43,99.42C1483.8,731.16,1519.6,654,1509.61,607.69Z" transform="translate(-24.96 -179.97)"/><path class="cls-10" d="M1479.51,531.64c-5.94,17.56-5.12,49.19,17.27,42.89s31.08-26.06,31.08-26.06S1519.75,467.42,1479.51,531.64Z" transform="translate(-24.96 -179.97)"/><path class="cls-11" d="M1509.58,557.41c4.52-7.56,13.06,5.09-1.24,7.09,4.11,13,51.56-21.3,27.63-35.35,6.5-16.44-8.23-33.36-30.81-34.56-19.65-1-23.9,17.2-39.9,3.48-11.64-10-18,33.24,8.94,30.55,18-1.8,14.37,14.12,26.37,15.37C1514.05,545.39,1509.58,557.41,1509.58,557.41Z" transform="translate(-24.96 -179.97)"/><path class="cls-10" d="M1498.45,564.83c-5.54,11.49-8.83,28-14.81,24.78s0-30.23,1.22-30.26S1498.45,564.83,1498.45,564.83Z" transform="translate(-24.96 -179.97)"/><path class="cls-12" d="M1293.63,603.13c-18.51-17.75-1.43-39.47,20.26-26.24,78.14,47.67,279.59,219.3,272.86,231.58S1359.38,666.22,1293.63,603.13Z" transform="translate(-24.96 -179.97)"/><path class="cls-13" d="M1586.73,808.47c-6.72,12.26-227.37-142.26-293.09-205.33-11.89-11.37-9.1-24.39.13-28.78-1.17,5.6.91,12.51,7.58,18.95,55.35,53.09,220.43,171,275.31,199.65C1584,801.12,1587.74,806.62,1586.73,808.47Z" transform="translate(-24.96 -179.97)"/><path class="cls-14" d="M1332.39,588.5l-22.68,29.38c-14.19-6.24-24.8-14.79-32.27-24.92l22.68-29.38A83.42,83.42,0,0,1,1332.39,588.5Z" transform="translate(-24.96 -179.97)"/><path class="cls-15" d="M1332.39,588.51l-22.68,29.38c-14.18-6.26-24.79-14.8-32.28-24.95l7-9.07c1.14,1.35,2.35,2.66,3.62,4,11.68,11.81,30.38,11.44,41.39-2.83h0Q1331,586.68,1332.39,588.51Z" transform="translate(-24.96 -179.97)"/><path class="cls-16" d="M1300.12,563.58,1277.44,593c-38.09,8-48.44-60.73-48.44-60.73a22.43,22.43,0,0,0,14.9,5.43C1261.07,537,1290,535.39,1300.12,563.58Z" transform="translate(-24.96 -179.97)"/><path class="cls-17" d="M1300.12,563.6l-22.69,29.34c-33.66,7.09-45.63-45.73-48-58.14,6.32,19.49,21.08,45.54,43.87,36.52,14.36-5.68,18.52-21.46,18.52-21.46A37.84,37.84,0,0,1,1300.12,563.6Z" transform="translate(-24.96 -179.97)"/><path class="cls-10" d="M1478.72,710.84a9,9,0,0,0-2-1.85,6.41,6.41,0,0,0-6.46-.11c-2.55,1.52-3.32,5-2.49,7.88a12,12,0,0,0,5,7.26c3.89,2.57,7.46,2.21,13.08,1" transform="translate(-24.96 -179.97)"/><path class="cls-18" d="M1492.71,581.21c71,3.33,120.71,142.35-6.94,143.81-5-4.52-12.94-17.15-12.83-21.77,92.71-6,54.77-77.38,26.64-91.72" transform="translate(-24.96 -179.97)"/><path class="cls-10" d="M1325.6,617c-5-.59-7.32,4-8,7.78s1,7.63,3.63,10.53a28,28,0,0,0,10.08,6.49c1.62.67,3.88,1.11,4.87-.25a3.39,3.39,0,0,0,.43-2.08,31.76,31.76,0,0,0-2.34-12.14C1332.6,623.52,1330.56,617.61,1325.6,617Z" transform="translate(-24.96 -179.97)"/><path class="cls-19" d="M1207.9,497.64c-2.21-8.08-.39-17.91,6.74-18.45,5.42-.41,14.1.85,10,18.75-3.35,14.73-1.2,23.85,1.78,30.38C1226.07,527.57,1212.45,514.32,1207.9,497.64Z" transform="translate(-24.96 -179.97)"/><path class="cls-10" d="M747.88,568.72c14-15.91,29.49-19.49,27-13.31s-12.32,20.48-12.32,20.48-13.62,12-16.34,4.7S747.88,568.72,747.88,568.72Z" transform="translate(-24.96 -179.97)"/><path class="cls-10" d="M496.82,685.32,517.06,725S410.11,854.16,262.3,769.07a32.26,32.26,0,0,1,9-14C374.18,793.86,462.82,731.21,496.82,685.32Z" transform="translate(-24.96 -179.97)"/><path class="cls-20" d="M402.18,755a260.38,260.38,0,0,0,24.36,31.73C482.91,766.2,517.06,725,517.06,725l-20.24-39.64C478.72,709.75,445.15,738.91,402.18,755Z" transform="translate(-24.96 -179.97)"/><path class="cls-10" d="M492.86,724l39,25.77S484.41,908.55,318,871.26a32.13,32.13,0,0,1,4.4-16C432.18,861.66,483.25,787.1,492.86,724Z" transform="translate(-24.96 -179.97)"/><path class="cls-20" d="M488.65,823.06c31.65-34.66,43.2-73.26,43.2-73.26l-39-25.77a161.24,161.24,0,0,1-35,78.25A83.54,83.54,0,0,1,488.65,823.06Z" transform="translate(-24.96 -179.97)"/><path class="cls-21" d="M494.89,678.72c-6.15,1.6-81.09,46.47-99.95,40.47,4.77,16.58,12.83,57.2,71.59,77.32,44.2,15.14,43.86,43.36,43.86,43.36s46.32-70.76,46.91-111.72S494.89,678.72,494.89,678.72Z" transform="translate(-24.96 -179.97)"/><path class="cls-22" d="M581,531.45c-14.51-5.81-26.6,13.19-36.19,34.36-9.28,20.49-32.12,31-47.7,47.22-4.19,4.35-8.16,9.59-8.31,15.63-.11,4.14,1.62,8.1,3.46,11.82a33.77,33.77,0,0,0,6.1,9.28c3.6,3.58,8.44,5.55,13.17,7.4,5.73,2.24,11.62,4.44,17.77,4.67,4.54.17,9-.74,13.49-1.64,5.69-1.16,11.42-2.33,16.78-4.56,12.59-5.22,22.05-15.73,32-25,8.73-8.1,18.55-16,22.53-27.22,2.2-6.19,2.45-13,5.39-18.92,2.18-4.35,5.69-7.87,8.28-12,3.51-5.57,5.74-12.6,11.58-15.61" transform="translate(-24.96 -179.97)"/><path class="cls-8" d="M271.26,755.09l-8.66,14.65s-43.79,23-46.64,20.18,36.71-46.59,40.8-46.87S271.26,755.09,271.26,755.09Z" transform="translate(-24.96 -179.97)"/><path class="cls-10" d="M628.62,560.61c-.37,18.53-11.86,48-30.78,34.5s-20.42-35.05-20.42-35.05S612.52,486.55,628.62,560.61Z" transform="translate(-24.96 -179.97)"/><path class="cls-23" d="M591.6,574.67c-1.7-8.65-14,.36-1.24,7.09-8.26,10.8-41.29-37.52-14-42.63-.53-17.67,19-28.6,40.71-22.07,18.84,5.67,16.65,24.28,36.36,16.79,14.33-5.44,5.63,37.36-18.76,25.71-16.34-7.8-18.31,8.42-30,5.53C591.46,561.83,591.6,574.67,591.6,574.67Z" transform="translate(-24.96 -179.97)"/><path class="cls-8" d="M322.39,855.25l-4.4,16s-45.1,23.66-48.66,21.81,32.44-38.33,36.27-39.81S322.39,855.25,322.39,855.25Z" transform="translate(-24.96 -179.97)"/><path class="cls-24" d="M747.88,568.72c-8.86,11.54-85.94,75.68-134.62,37.2v0c-7.6-6.08-17.28-8.51-23.78-9.66-47.82-9.54-141.68,25.21-179.81,55.1L415.3,671s52.43-36.22,127.89-46.27c-10.27,16.55-22.46,37.22-48.3,54,22.82,17.94,41.94,18.13,62.41,49.43,26-54.76,49.39-71.74,63.56-81.88,32-6.58,91.75-11.88,141.75-70.38C763.29,575.1,748.53,572.61,747.88,568.72Z" transform="translate(-24.96 -179.97)"/><path class="cls-10" d="M409.67,651.38c-29.95,15-21.74,28.34-10.65,24.31S415.3,671,415.3,671Z" transform="translate(-24.96 -179.97)"/><path class="cls-10" d="M594.22,581.69c-.56,12.76-5.44,28.83,1.33,28.85s14.33-26.62,13.24-27.25S594.22,581.69,594.22,581.69Z" transform="translate(-24.96 -179.97)"/><path class="cls-25" d="M216.53,548.84l15.38-5.14,26.88,80.47a8.11,8.11,0,0,1-5.13,10.26h0a8.11,8.11,0,0,1-10.26-5.12Z" transform="translate(-24.96 -179.97)"/><path class="cls-26" d="M251.17,523.85a46.87,46.87,0,1,0-55.56,25.38A46.89,46.89,0,0,0,251.17,523.85Zm-50,17.08a37.5,37.5,0,1,1,41.07-20.06A37.52,37.52,0,0,1,201.16,540.93Z" transform="translate(-24.96 -179.97)"/><path class="cls-27" d="M216.09,467.43A37.51,37.51,0,1,1,175,487.51,37.52,37.52,0,0,1,216.09,467.43Z" transform="translate(-24.96 -179.97)"/><path class="cls-28" d="M220.9,475.94a3.86,3.86,0,0,1-4.91,2.4A26.87,26.87,0,0,0,181.9,495a3.86,3.86,0,0,1-7.31-2.5A34.59,34.59,0,0,1,218.5,471,3.86,3.86,0,0,1,220.9,475.94Z" transform="translate(-24.96 -179.97)"/><path class="cls-29" d="M195.38,530.86a3.86,3.86,0,0,1,4.91-2.4,26.87,26.87,0,0,0,34.09-16.68,3.86,3.86,0,1,1,7.31,2.51,34.61,34.61,0,0,1-43.91,21.47A3.86,3.86,0,0,1,195.38,530.86Z" transform="translate(-24.96 -179.97)"/><path class="cls-30" d="M244.64,520.8a39.66,39.66,0,1,0-46.18,21.74A39.67,39.67,0,0,0,244.64,520.8Zm-43.48,20.13a37.5,37.5,0,1,1,41.07-20.06A37.52,37.52,0,0,1,201.16,540.93Z" transform="translate(-24.96 -179.97)"/><path class="cls-31" d="M1427,361.5c-31.7-12.87-52-14.66-70.59-5.69l-43.67,52.65c16.06-10.06,54.07-4.12,74.24,5.71Z" transform="translate(-24.96 -179.97)"/><path class="cls-32" d="M1255.05,386.65l52.56-49.54c12.35,2.84,32.14,3.79,48.75,18.7l-43.67,52.65S1258.85,386.54,1255.05,386.65Z" transform="translate(-24.96 -179.97)"/><path class="cls-33" d="M1255.05,386.65l3.8,21.81s40.68,1.57,43.52,16.83c.52,6,10.1,5.06,10.32,2.33,0,0,24.85-14.48,70.36,3.62l3.88-17.07s-44-24.05-74.24-5.71C1307.29,395.81,1277.29,385.36,1255.05,386.65Z" transform="translate(-24.96 -179.97)"/><polygon class="cls-34" points="1361.98 234.2 1402 181.53 1397.73 201.27 1358.1 251.27 1361.98 234.2"/><path class="cls-35" d="M1258.85,373.76c12-2.39,49.05,18.54,53.84,34.7l43.67-52.65s-12-35.89-44.87-41.27Z" transform="translate(-24.96 -179.97)"/><rect class="cls-36" x="663.99" y="860.57" width="18.06" height="11.22" transform="translate(457.59 1766.45) rotate(-132.15)"/><rect class="cls-37" x="668.58" y="860.57" width="8.88" height="11.22" transform="translate(457.58 1766.45) rotate(-132.15)"/><path class="cls-38" d="M657.92,868.48h15.31a1.38,1.38,0,0,1,1.38,1.38v7.49a0,0,0,0,1,0,0H656.55a0,0,0,0,1,0,0v-7.49A1.38,1.38,0,0,1,657.92,868.48Z" transform="matrix(-0.67, -0.74, 0.74, -0.67, 440.21, 1772.2)"/><path class="cls-39" d="M662,868.48h7.08a.9.9,0,0,1,.9.9v8a0,0,0,0,1,0,0h-8.88a0,0,0,0,1,0,0v-8a.9.9,0,0,1,.9-.9Z" transform="translate(440.23 1772.21) rotate(-132.16)"/><path class="cls-38" d="M772.82,777.23l-5.24,15.51-12.11-13.38,15.95-3.67A1.3,1.3,0,0,1,772.82,777.23Z" transform="translate(-24.96 -179.97)"/><path class="cls-26" d="M771.42,775.69l-6.31,1.45,5.64,6.23,2.07-6.14A1.3,1.3,0,0,0,771.42,775.69Z" transform="translate(-24.96 -179.97)"/><rect class="cls-40" x="709.82" y="767.12" width="18.06" height="115.13" transform="translate(564.95 1731.1) rotate(-132.15)"/><rect class="cls-41" x="714.41" y="767.12" width="8.88" height="115.13" transform="translate(564.93 1731.1) rotate(-132.15)"/><path class="cls-42" d="M1084.21,975.76c29.41-15.55,54-51,54-51s16.71,29.19,82.32,32.32c0,0-48.6,54-65.53,51.93C1128,1006.71,1104.87,994.44,1084.21,975.76Z" transform="translate(-24.96 -179.97)"/><path class="cls-43" d="M697.67,375.58c-31.75,9.95-62.37,40.36-62.37,40.36s-11.14-31.74-75.09-46.74c0,0,57.61-44.27,73.87-39.16C660.22,337.19,680.74,353.46,697.67,375.58Z" transform="translate(-24.96 -179.97)"/><path class="cls-44" d="M424,513h68.57a49.12,49.12,0,0,0,49.11-49.12h0a49.11,49.11,0,0,0-49.11-49.11H424a49.12,49.12,0,0,0-49.12,49.11h0A49.12,49.12,0,0,0,424,513Z" transform="translate(-24.96 -179.97)"/><polyline class="cls-44" points="507.95 286.62 541.78 316.67 507.95 306.12"/><path class="cls-45" d="M493.22,455.37a8.49,8.49,0,1,1-8.48,8.48A8.49,8.49,0,0,1,493.22,455.37Zm-43.46,8.48a8.49,8.49,0,1,0,8.48-8.48A8.49,8.49,0,0,0,449.76,463.85Zm-35,0a8.48,8.48,0,1,0,8.48-8.48A8.49,8.49,0,0,0,414.78,463.85Z" transform="translate(-24.96 -179.97)"/><path class="cls-44" d="M1715.43,590.23h-68.57a49.1,49.1,0,0,1-49.11-49.11h0A49.11,49.11,0,0,1,1646.86,492h68.57a49.11,49.11,0,0,1,49.11,49.11h0A49.1,49.1,0,0,1,1715.43,590.23Z" transform="translate(-24.96 -179.97)"/><polyline class="cls-44" points="1581.52 363.88 1539.61 352.67 1581.52 383.39"/><path class="cls-45" d="M1654.65,541.12a8.49,8.49,0,1,1-8.49-8.48A8.48,8.48,0,0,1,1654.65,541.12Zm26.5-8.48a8.48,8.48,0,1,0,8.48,8.48A8.49,8.49,0,0,0,1681.15,532.64Zm35,0a8.48,8.48,0,1,0,8.48,8.48A8.49,8.49,0,0,0,1716.13,532.64Z" transform="translate(-24.96 -179.97)"/></g><path class="cls-46" d="M954.61,577.87l-.94-.38-3.2-1.28a161.26,161.26,0,0,0-30.13-6.51c-43.14-5.08-61.55-19.52-61.55-48.29A47.16,47.16,0,0,1,863.54,501c-8.77,12.37-11,23.19-11,23.36-.08.34-6.21,25.87,10,46.09,14.54,18.18,35.19,19.86,46.28,20.77l3.2.27c3.08.31,7.17.46,11.51.61,12.1.43,27.11,1,35.46,5.33,10.06,5.27,13,13.41,13.66,19.23,3.43-5.75,4.46-11.56,3-17.31C973,588.66,962.66,581.09,954.61,577.87Z" transform="translate(-24.96 -179.97)"/><path class="cls-47" d="M920.83,565.57a186.34,186.34,0,0,1,19,3.36,19.26,19.26,0,0,1-2.05-4.88c-4.51-15.81-14.79-17.08-23-18.1l-1.18-.15a42.24,42.24,0,0,1-14.29-4c-15-7.09-23.59-16.47-25.42-27.87-1-6.33.12-13.24,3.35-20.52l.65-1.4a66.82,66.82,0,0,1,4.89-8.46c-12.56,10.27-19.82,23.9-19.82,37.86C862.94,547.59,880.25,560.8,920.83,565.57Z" transform="translate(-24.96 -179.97)"/><path class="cls-48" d="M883.93,525.78a37.45,37.45,0,0,0,4.83,4.68A23.43,23.43,0,0,1,887,519c.77-7.46,5.24-14.85,12.58-20.83.23-.19.46-.38.7-.56,9.92-7.88,22.84-14,39.5-18.76a140.93,140.93,0,0,1,69-1.56c22.73,5.05,38.32,13,48.91,20.79a110,110,0,0,0-24.17-18.7,141,141,0,0,0-14.93-7,167.32,167.32,0,0,0-41.5-10.7h0A192.39,192.39,0,0,0,932.81,463c-12.44,2.48-42.33,10.37-52.14,30.33l-.59,1.29a32.76,32.76,0,0,0-2.1,18.61A25.9,25.9,0,0,0,883.93,525.78Z" transform="translate(-24.96 -179.97)"/><path class="cls-49" d="M982.23,477.91a135.61,135.61,0,0,0-52.48,8.89,104.08,104.08,0,0,1,13.83-.87,145.17,145.17,0,0,1,16.1.94c18.74,2.09,35.73,6.78,50.5,13.93,12.48,6.05,53.22,28.9,53.22,68.91a49.24,49.24,0,0,1-10,29.77,53.5,53.5,0,0,0,21.26-23.54,57.9,57.9,0,0,0,5.42-20.63c.12-1.81.17-3.61.14-5.35C1079.34,499.8,1019.65,479.14,982.23,477.91Z" transform="translate(-24.96 -179.97)"/><path class="cls-50" d="M1041.68,528.56a54.17,54.17,0,0,1,7,27c-.28,20.57-12.38,37.79-33.19,47.25-13.1,6-20.86,13.83-23.05,23.42-2.06,9,1.15,17.89,4.38,24-2-3.85,1.26-13.62,2.79-17.46a35.1,35.1,0,0,1,19.9-19.79c6.35-2.59,13.11-4.22,19.15-7.47,13.21-7.12,20.63-20.89,20.63-35.74C1059.25,552.41,1051.16,538.7,1041.68,528.56Z" transform="translate(-24.96 -179.97)"/><path class="cls-51" d="M988.35,625.26c2.49-10.92,11-19.76,25.37-26.28,19.3-8.77,30.51-24.64,30.76-43.53a49.15,49.15,0,0,0-4-20.08,35.4,35.4,0,0,1-1.11,22.65c-5.81,14.54-20.21,21.1-29.73,25.45-1.25.57-2.42,1.1-3.49,1.62-5.58,2.67-22.56,10.82-25.86,31.68-1.43,9.11,3.85,19.27,9.3,27A34.94,34.94,0,0,1,988.35,625.26Z" transform="translate(-24.96 -179.97)"/><text class="cls-52" transform="translate(777.56 519.31)">BRAIN</text><text class="cls-53" transform="translate(959.16 519.46)">T<tspan class="cls-54" x="31.89" y="0">E</tspan><tspan x="67.22" y="0">CH</tspan></text><text class="cls-55" transform="translate(801.16 570.13)"><tspan class="cls-56">F</tspan><tspan x="30.45" y="0">oundation</tspan></text></g></g></g></svg>