<svg xmlns="http://www.w3.org/2000/svg" viewBox="0 0 500 500"><defs><style>.cls-1{fill:#a099ad;}</style></defs><title>instagram</title><g id="Layer_2" data-name="Layer 2"><g id="Layer_1-2" data-name="Layer 1"><path class="cls-1" d="M250,500C112.15,500,0,387.85,0,250S112.15,0,250,0,500,112.15,500,250,387.85,500,250,500Zm0-476.25C125.24,23.75,23.75,125.24,23.75,250S125.24,476.25,250,476.25,476.25,374.76,476.25,250,374.76,23.75,250,23.75Zm84.3,124.82a18.5,18.5,0,1,0,18.5,18.5A18.5,18.5,0,0,0,334.3,148.57Zm-82.25,23.72A77.71,77.71,0,1,0,329.76,250,77.8,77.8,0,0,0,252.05,172.29Zm0,127.49A49.78,49.78,0,1,1,301.83,250,49.84,49.84,0,0,1,252.05,299.78Zm156.8-114.36a94.77,94.77,0,0,0-94.78-94.78H189a94.78,94.78,0,0,0-94.79,94.78V310.53A94.79,94.79,0,0,0,189,405.31h125.1a94.78,94.78,0,0,0,94.78-94.78ZM379.17,310.53a65.1,65.1,0,0,1-65.1,65.09H189a65.1,65.1,0,0,1-65.1-65.09V185.42a65.1,65.1,0,0,1,65.1-65.1h125.1a65.1,65.1,0,0,1,65.1,65.1Z"/></g></g></svg>