<svg xmlns="http://www.w3.org/2000/svg" viewBox="0 0 309.65 272.11"><defs><style>.cls-1{fill:#1a5c73;}.cls-2{fill:#80c7d4;}.cls-3{fill:#911d5a;}.cls-4{fill:#4a1e5e;}.cls-5{fill:#eb6224;}.cls-6{fill:#fbda54;}</style></defs><title>Lago braintech</title><g id="Layer_2" data-name="Layer 2"><g id="Layer_1-2" data-name="Layer 1"><path class="cls-1" d="M142.93,112.52l-.9-.36c-1.12-.45-2.14-.85-3.08-1.24a156.11,156.11,0,0,0-29-6.27C68.4,99.76,50.68,85.86,50.68,58.16a45.47,45.47,0,0,1,4.57-19.61C46.81,50.46,44.67,60.88,44.64,61c-.08.33-6,24.91,9.6,44.37,14,17.51,33.88,19.13,44.56,20,1.13.09,2.16.17,3.08.26,3,.3,6.91.44,11.08.59,11.65.41,26.11.92,34.14,5.13,9.69,5.08,12.49,12.91,13.15,18.52,3.31-5.54,4.3-11.14,2.93-16.68C160.63,122.91,150.68,115.62,142.93,112.52Z"/><path class="cls-2" d="M110.41,100.68a174.4,174.4,0,0,1,18.31,3.24,18.59,18.59,0,0,1-2-4.71C122.41,84,112.51,82.77,104.56,81.79l-1.13-.14a40.94,40.94,0,0,1-13.76-3.86C75.21,71,67,61.93,65.2,51c-1-6.1.11-12.75,3.23-19.76l.62-1.34a62.67,62.67,0,0,1,4.71-8.15c-12.09,9.89-19.08,23-19.08,36.45C54.68,83.37,71.34,96.08,110.41,100.68Z"/><path class="cls-3" d="M74.88,62.37a36.58,36.58,0,0,0,4.65,4.5,22.75,22.75,0,0,1-1.66-11c.75-7.18,5-14.3,12.12-20l.67-.55c9.56-7.58,22-13.49,38-18.06a135.9,135.9,0,0,1,66.42-1.5c21.88,4.86,36.89,12.48,47.08,20a105.61,105.61,0,0,0-23.27-18A135.29,135.29,0,0,0,204.55,11a161,161,0,0,0-40-10.31h0A184.34,184.34,0,0,0,122,2c-12,2.38-40.76,10-50.2,29.19l-.58,1.25a31.69,31.69,0,0,0-2,17.92A25,25,0,0,0,74.88,62.37Z"/><path class="cls-4" d="M169.52,16.28A130.71,130.71,0,0,0,119,24.84,99.64,99.64,0,0,1,132.31,24a139.44,139.44,0,0,1,15.5.91c18.05,2,34.4,6.52,48.62,13.41,12,5.83,51.25,27.82,51.25,66.34A47.39,47.39,0,0,1,238,133.32a51.42,51.42,0,0,0,20.46-22.66,55.83,55.83,0,0,0,5.23-19.86c.11-1.74.16-3.47.13-5.15C263,37.36,205.55,17.47,169.52,16.28Z"/><path class="cls-5" d="M226.76,65.05A52.16,52.16,0,0,1,233.46,91c-.27,19.8-11.92,36.39-32,45.5-12.61,5.73-20.07,13.31-22.18,22.54-2,8.67,1.1,17.23,4.22,23.1-2-3.71,1.2-13.11,2.68-16.81a33.86,33.86,0,0,1,19.16-19.06c6.11-2.49,12.62-4.06,18.43-7.19,12.73-6.85,19.87-20.11,19.87-34.41C243.68,88,235.89,74.8,226.76,65.05Z"/><path class="cls-6" d="M175.42,158.14c2.4-10.51,10.62-19,24.43-25.3,18.57-8.44,29.37-23.71,29.61-41.9A47.4,47.4,0,0,0,225.6,71.6a34.17,34.17,0,0,1-1.07,21.81c-5.6,14-19.45,20.32-28.63,24.5-1.2.55-2.33,1.06-3.36,1.56-5.37,2.58-21.72,10.42-24.89,30.51-1.38,8.76,3.7,18.54,9,26A33.6,33.6,0,0,1,175.42,158.14Z"/><path d="M33.3,219.81c0,6.05-5,9.6-14.4,9.6H0v-35H17.9c9.2,0,13.7,3.75,13.7,9.15a8.26,8.26,0,0,1-4.7,7.6C30.85,212.56,33.3,215.56,33.3,219.81ZM9.8,201.56v6.75h6.8c3.3,0,5-1.15,5-3.4s-1.7-3.35-5-3.35Zm13.5,17.15c0-2.4-1.8-3.55-5.2-3.55H9.8v7.1h8.3C21.5,222.26,23.3,221.11,23.3,218.71Z"/><path d="M53.75,220.11h-5.4v9.3h-9.9v-35h16c9.55,0,15.55,5,15.55,13a11.61,11.61,0,0,1-6.85,11l7.55,11H60.1Zm.1-17.9h-5.5v10.25h5.5c4.1,0,6.15-1.9,6.15-5.1S58,202.21,53.85,202.21Z"/><path d="M98.9,222.61H84.1l-2.75,6.8H71.25l15.45-35h9.75l15.5,35h-10.3Zm-2.9-7.3-4.5-11.2L87,215.31Z"/><path d="M114.75,194.41h9.9v35h-9.9Z"/><path d="M165,194.41v35h-8.15L141.4,210.76v18.65h-9.7v-35h8.15l15.45,18.65V194.41Z"/><path d="M183.37,199.46H171.54v-5.61h30.3v5.61H190v30.09h-6.63Z"/><path d="M233.61,224v5.56H206.84v-35.7h26v5.56H213.46v9.28H230.7v5.46H213.46V224Z"/><path d="M238.3,211.7c0-10.66,8.16-18.36,19.13-18.36,5.81,0,10.81,2.09,14.12,6l-4.28,4a12.53,12.53,0,0,0-9.54-4.18c-7.39,0-12.75,5.2-12.75,12.54s5.36,12.55,12.75,12.55a12.41,12.41,0,0,0,9.54-4.24l4.28,4.08c-3.31,3.88-8.31,6-14.18,6C246.46,230.06,238.3,222.36,238.3,211.7Z"/><path d="M309.65,193.85v35.7H303v-15.3H284.56v15.3h-6.63v-35.7h6.63v14.74H303V193.85Z"/><path d="M48,244.75v13.44H63.42V259H48v13h-.8V244h18v.76Z"/><path d="M68.38,261.63c0-6.12,4.28-10.44,10-10.44s10,4.32,10,10.44-4.28,10.48-10,10.48S68.38,267.75,68.38,261.63Zm19.28,0c0-5.72-4-9.68-9.24-9.68s-9.24,4-9.24,9.68,4,9.72,9.24,9.72S87.66,267.35,87.66,261.63Z"/><path d="M112.58,251.31V272h-.8v-5.48c-1.2,3.44-4.12,5.6-8.32,5.6-5.24,0-8.48-3-8.48-8.6v-12.2h.8v12.2c0,5.12,2.8,7.84,7.64,7.84,5.2,0,8.36-3.56,8.36-8.8V251.31Z"/><path d="M139.54,259.79V272h-.8v-12.2c0-5.12-2.76-7.84-7.44-7.84-5.44,0-8.72,3.56-8.72,8.8V272h-.8V251.31h.8v5.52c1.24-3.44,4.28-5.64,8.68-5.64C136.34,251.19,139.54,254.19,139.54,259.79Z"/><path d="M166.13,242.31V272h-.8v-6.32a9.55,9.55,0,0,1-9.23,6.44c-5.68,0-10-4.36-10-10.48s4.36-10.44,10-10.44a9.57,9.57,0,0,1,9.23,6.4V242.31Zm-.8,19.32c0-5.72-4-9.68-9.23-9.68s-9.24,4-9.24,9.68,4,9.72,9.24,9.72S165.33,267.35,165.33,261.63Z"/><path d="M189.33,258.43V272h-.79v-4.4c-1.32,2.76-4,4.52-7.88,4.52-4.64,0-7.32-2.32-7.32-5.8,0-3,1.84-5.56,7.36-5.56h7.84v-2.28c0-4.32-2.28-6.52-6.56-6.52a10.83,10.83,0,0,0-7.52,2.88l-.56-.56a11.78,11.78,0,0,1,8-3.08C186.74,251.19,189.33,253.71,189.33,258.43Zm-.79,7.64v-4.56h-7.88c-4.68,0-6.52,2-6.52,4.76,0,3.12,2.4,5.08,6.52,5.08A7.83,7.83,0,0,0,188.54,266.07Z"/><path d="M207.66,270.63a5.73,5.73,0,0,1-4,1.48c-3.28,0-5-2-5-5.08v-15h-4v-.76h4v-4.52h.8v4.52h7v.76h-7v14.76c0,2.92,1.44,4.52,4.24,4.52a5,5,0,0,0,3.44-1.28Z"/><path d="M213.18,244.55a1,1,0,1,1,1,1A1.06,1.06,0,0,1,213.18,244.55Zm.64,6.76h.8V272h-.8Z"/><path d="M221.38,261.63c0-6.12,4.28-10.44,10-10.44s10,4.32,10,10.44-4.28,10.48-10,10.48S221.38,267.75,221.38,261.63Zm19.27,0c0-5.72-4-9.68-9.23-9.68s-9.24,4-9.24,9.68,4,9.72,9.24,9.72S240.65,267.35,240.65,261.63Z"/><path d="M266,259.79V272h-.8v-12.2c0-5.12-2.76-7.84-7.44-7.84-5.43,0-8.71,3.56-8.71,8.8V272h-.8V251.31h.8v5.52c1.24-3.44,4.28-5.64,8.68-5.64C262.77,251.19,266,254.19,266,259.79Z"/></g></g></svg>