<svg xmlns="http://www.w3.org/2000/svg" width="50" viewBox="0 0 623.99 144.8"><defs><style>svg{cursor:pointer;}.cls-1{fill:#1a5c74;}.cls-2{fill:#80c3cf;}.cls-3{fill:#8d1e5b;}.cls-4{fill:#4a215e;}.cls-5{fill:#e76225;}.cls-6{fill:#f7d653;}</style></defs><title>logo horizontal Braintech acomodado</title><g id="Layer_2" data-name="Layer 2"><g id="Layer_1-2" data-name="Layer 1"><path class="cls-1" d="M79.07,89.46l-.72-.29-2.45-1a124.52,124.52,0,0,0-23.06-5c-33-3.89-47.12-14.94-47.12-37A36.08,36.08,0,0,1,9.36,30.65,52.26,52.26,0,0,0,.92,48.53c-.06.26-4.75,19.8,7.63,35.28C19.69,97.73,35.49,99,44,99.7l2.45.21c2.36.24,5.49.35,8.81.47,9.26.33,20.75.73,27.14,4.08,7.7,4,9.93,10.26,10.45,14.72a17.09,17.09,0,0,0,2.33-13.25C93.14,97.71,85.23,91.92,79.07,89.46Z"/><path class="cls-2" d="M53.21,80a142.13,142.13,0,0,1,14.56,2.58,14.77,14.77,0,0,1-1.57-3.74C62.75,66.78,54.88,65.81,48.56,65l-.9-.12a32.24,32.24,0,0,1-10.94-3.07c-11.49-5.42-18-12.6-19.45-21.33-.78-4.84.08-10.13,2.56-15.7l.5-1.07a50,50,0,0,1,3.74-6.48c-9.61,7.86-15.17,18.3-15.17,29C8.9,66.28,22.15,76.39,53.21,80Z"/><path class="cls-3" d="M25,49.59a28.15,28.15,0,0,0,3.69,3.57,18,18,0,0,1-1.32-8.74c.59-5.71,4-11.37,9.64-16l.53-.43C45.11,22,55,17.32,67.74,13.69a107.86,107.86,0,0,1,52.81-1.2C138,16.36,149.88,22.41,158,28.4a84.07,84.07,0,0,0-18.5-14.31,108.74,108.74,0,0,0-11.42-5.37A127.75,127.75,0,0,0,96.29.53h0a147.26,147.26,0,0,0-33.88,1C52.86,3.46,30,9.5,22.47,24.78l-.45,1A25.12,25.12,0,0,0,20.41,40,19.75,19.75,0,0,0,25,49.59Z"/><path class="cls-4" d="M100.21,12.94A103.73,103.73,0,0,0,60,19.75a78.7,78.7,0,0,1,10.58-.67,111.26,111.26,0,0,1,12.32.72A118.5,118.5,0,0,1,121.6,30.47c9.56,4.63,40.74,22.11,40.74,52.74A37.76,37.76,0,0,1,154.67,106a41,41,0,0,0,16.27-18,44.39,44.39,0,0,0,4.15-15.79c.1-1.39.13-2.76.11-4.1C174.54,29.7,128.85,13.89,100.21,12.94Z"/><path class="cls-5" d="M145.71,51.72A41.45,41.45,0,0,1,151,72.34c-.21,15.74-9.47,28.93-25.41,36.17-10,4.56-16,10.59-17.64,17.92-1.57,6.9.88,13.7,3.36,18.37-1.57-3,1-10.43,2.13-13.37a26.89,26.89,0,0,1,15.23-15.15c4.86-2,10-3.23,14.66-5.71,10.11-5.45,15.79-16,15.79-27.36C159.16,70,153,59.47,145.71,51.72Z"/><path class="cls-6" d="M104.89,125.73c1.91-8.36,8.45-15.13,19.43-20.12,14.76-6.71,23.34-18.85,23.54-33.31a37.76,37.76,0,0,0-3.07-15.37,27.15,27.15,0,0,1-.85,17.33c-4.45,11.13-15.47,16.15-22.76,19.48L118.51,95c-4.27,2-17.27,8.29-19.79,24.26-1.1,7,2.94,14.74,7.12,20.64A26.75,26.75,0,0,1,104.89,125.73Z"/><path d="M249.34,50.75c0,8.21-6.78,13-19.52,13H204.2V16.32h24.26c12.47,0,18.57,5.09,18.57,12.41A11.19,11.19,0,0,1,240.66,39C246,40.93,249.34,45,249.34,50.75ZM217.48,26v9.16h9.22c4.47,0,6.78-1.56,6.78-4.61S231.17,26,226.7,26Zm18.3,23.25c0-3.25-2.44-4.81-7.05-4.81H217.48v9.63h11.25C233.34,54.08,235.78,52.52,235.78,49.26Z"/><path d="M277.06,51.16h-7.32V63.77H256.32V16.32H278c12.95,0,21.08,6.71,21.08,17.56a15.75,15.75,0,0,1-9.28,15L300,63.77H285.67Zm.14-24.26h-7.46V40.79h7.46c5.56,0,8.34-2.57,8.34-6.91S282.76,26.9,277.2,26.9Z"/><path d="M338.27,54.55H318.21l-3.73,9.22H300.79l20.94-47.45H335l21,47.45H342Zm-3.93-9.9-6.1-15.18-6.1,15.18Z"/><path d="M359.76,16.32h13.42V63.77H359.76Z"/><path d="M427.88,16.32V63.77h-11L395.89,38.49V63.77H382.74V16.32h11.05L414.73,41.6V16.32Z"/><path d="M452.8,23.17h-16V15.56h41.07v7.61h-16V64h-9Z"/><path d="M520.9,56.42V64H484.61V15.56h35.33V23.1H493.6V35.68H517v7.4H493.6V56.42Z"/><path d="M527.27,39.76c0-14.45,11.06-24.89,25.92-24.89,7.89,0,14.66,2.84,19.16,8.09l-5.81,5.46a17,17,0,0,0-12.93-5.67c-10,0-17.29,7.05-17.29,17s7.26,17,17.29,17A16.84,16.84,0,0,0,566.54,51l5.81,5.53c-4.5,5.26-11.27,8.09-19.22,8.09C538.33,64.65,527.27,54.21,527.27,39.76Z"/><path d="M624,15.56V64h-9V43.22H590V64h-9V15.56h9v20h25v-20Z"/><path d="M207.92,82.32v25.49H237.2v1.44H207.92V134H206.4V80.88h34.21v1.44Z"/><path d="M246.6,114.33c0-11.61,8.12-19.8,19-19.8s19,8.19,19,19.8-8.12,19.87-19,19.87S246.6,125.93,246.6,114.33Zm36.56,0c0-10.85-7.51-18.36-17.52-18.36s-17.52,7.51-17.52,18.36,7.51,18.43,17.52,18.43S283.16,125.18,283.16,114.33Z"/><path d="M330.42,94.76V134H328.9V123.58c-2.28,6.53-7.81,10.62-15.78,10.62-9.94,0-16.08-5.69-16.08-16.31V94.76h1.52v23.13c0,9.71,5.31,14.87,14.49,14.87,9.86,0,15.85-6.75,15.85-16.69V94.76Z"/><path d="M381.54,110.84V134H380V110.84c0-9.71-5.23-14.87-14.11-14.87-10.31,0-16.53,6.75-16.53,16.69V134h-1.52V94.76h1.52v10.47c2.35-6.53,8.11-10.7,16.46-10.7C375.47,94.53,381.54,100.22,381.54,110.84Z"/><path d="M432,77.69V134h-1.52V122a18.15,18.15,0,0,1-17.52,12.21c-10.77,0-19-8.27-19-19.87s8.27-19.8,19-19.8a18.18,18.18,0,0,1,17.52,12.14v-29Zm-1.52,36.64C430.46,103.48,423,96,412.94,96s-17.52,7.51-17.52,18.36,7.51,18.43,17.52,18.43S430.46,125.18,430.46,114.33Z"/><path d="M476,108.26V134h-1.52v-8.34c-2.5,5.23-7.58,8.57-14.94,8.57-8.8,0-13.88-4.4-13.88-11,0-5.61,3.49-10.54,14-10.54h14.86v-4.32c0-8.19-4.32-12.37-12.44-12.37a20.56,20.56,0,0,0-14.26,5.46l-1.06-1.06a22.37,22.37,0,0,1,15.25-5.84C471,94.53,476,99.31,476,108.26Zm-1.52,14.49V114.1H459.51c-8.87,0-12.36,3.79-12.36,9,0,5.91,4.55,9.63,12.36,9.63C467.1,132.76,471.88,129.12,474.45,122.75Z"/><path d="M510.71,131.4a10.89,10.89,0,0,1-7.66,2.8c-6.22,0-9.48-3.87-9.48-9.63V96.2H486V94.76h7.59V86.19h1.51v8.57h13.28V96.2H495.08v28c0,5.54,2.73,8.57,8,8.57a9.36,9.36,0,0,0,6.53-2.43Z"/><path d="M521.18,81.94a2,2,0,1,1,2,2A2,2,0,0,1,521.18,81.94Zm1.21,12.82h1.52V134h-1.52Z"/><path d="M536.72,114.33c0-11.61,8.12-19.8,19-19.8s19,8.19,19,19.8-8.11,19.87-19,19.87S536.72,125.93,536.72,114.33Zm36.57,0c0-10.85-7.51-18.36-17.53-18.36s-17.52,7.51-17.52,18.36,7.51,18.43,17.52,18.43S573.29,125.18,573.29,114.33Z"/><path d="M621.3,110.84V134h-1.52V110.84c0-9.71-5.23-14.87-14.11-14.87-10.31,0-16.53,6.75-16.53,16.69V134h-1.52V94.76h1.52v10.47c2.35-6.53,8.11-10.7,16.46-10.7C615.23,94.53,621.3,100.22,621.3,110.84Z"/></g></g></svg>