<svg xmlns="http://www.w3.org/2000/svg" viewBox="0 0 500 500"><defs><style>.cls-1,.cls-2{fill:#a099ad;}.cls-2{fill-rule:evenodd;}</style></defs><title>Twiter</title><g id="Layer_2" data-name="Layer 2"><g id="Layer_1-2" data-name="Layer 1"><path class="cls-1" d="M250,500C112.15,500,0,387.85,0,250S112.15,0,250,0,500,112.15,500,250,387.85,500,250,500Zm0-473.14C127,26.86,26.86,127,26.86,250S127,473.14,250,473.14,473.14,373,473.14,250,373,26.86,250,26.86Z"/><path class="cls-1" d="M393.68,158.76c-9.25,4.19-19.44,6.73-29.43,8.41,4.74-.8,11.73-9.38,14.52-12.85a54.25,54.25,0,0,0,9.81-17.85c.25-.51.45-1.15-.06-1.54a1.69,1.69,0,0,0-1.56.13,150.38,150.38,0,0,1-35,13.38,2.34,2.34,0,0,1-2.42-.64,28.25,28.25,0,0,0-3.05-3.12,61.83,61.83,0,0,0-16.94-10.38,58.88,58.88,0,0,0-26-4.18,62,62,0,0,0-24.64,7,63.47,63.47,0,0,0-19.88,16.24,61,61,0,0,0-11.87,23.78c-2.05,8.37-1.88,16.64-.63,25.1.18,1.41.06,1.6-1.21,1.41-48-7.15-87.83-24.33-120.14-61.16-1.41-1.59-2.17-1.59-3.32.13-14.14,21.19-7.28,55.25,10.39,72,2.35,2.23,4.77,4.46,7.38,6.5-.95.19-12.71-1.08-23.18-6.5-1.4-.89-2.11-.38-2.23,1.21a36.13,36.13,0,0,0,.38,6.88c2.71,21.49,17.59,41.36,38,49.12a36.08,36.08,0,0,0,7.7,2.35c-4.64,1-9.42,1.75-22.74.71-1.65-.32-2.29.51-1.65,2.1,10,27.27,31.6,35.38,47.77,40,2.17.38,4.33.38,6.5.89-.13.2-.26.2-.38.38-5.37,8.18-24,14.27-32.63,17.3a116.93,116.93,0,0,1-49.55,6.34c-2.66-.39-3.22-.36-4,0s-.09,1.09.77,1.78c3.38,2.23,6.81,4.21,10.32,6.12A164,164,0,0,0,147.91,363c59.53,16.44,126.58,4.35,171.28-40.05,35.09-34.88,47.4-83,47.4-131.12,0-1.88,2.22-2.93,3.55-3.92,9.13-6.86,16.39-15.07,23.2-24.24a7,7,0,0,0,1.43-4.64v-.26C394.77,158,394.87,158.22,393.68,158.76Z"/><path class="cls-2" d="M189.92,369Z"/><path class="cls-2" d="M189.92,369c-.38,0-4.81,0,0,0Z"/><path class="cls-2" d="M199.73,369.23c0-.49,5.17,0,0,0C199.73,369,200.37,369.23,199.73,369.23Z"/><path class="cls-2" d="M302.8,130.35a1.07,1.07,0,0,1-1.21,0Z"/></g></g></svg>